<svg width="512" height="512" viewBox="0 0 512 512" xmlns="http://www.w3.org/2000/svg">
  <path stroke="null" id="svg_1" d="m606.000018,431.106432l0,-331.272171l0,331.272171zm-216.884266,-272.409768c-59.036185,0 -107.069448,47.900579 -107.069448,106.773675c0,18.875753 4.959896,36.612549 13.614251,52.017948l-82.135911,0c8.654355,-15.405399 13.614251,-33.142194 13.614251,-52.017948c0,-58.873097 -48.033262,-106.773675 -107.069448,-106.773675s-107.069448,47.900579 -107.069448,106.773675c0,58.87845 48.033262,106.773675 107.069448,106.773675l269.046305,0c59.036185,0 107.069448,-47.895225 107.069448,-106.773675c0,-58.873097 -48.033262,-106.773675 -107.069448,-106.773675zm-321.208343,106.773675c0,-28.682587 23.4,-52.017948 52.162039,-52.017948s52.162039,23.335361 52.162039,52.017948s-23.399987,52.017948 -52.162039,52.017948s-52.162039,-23.335347 -52.162039,-52.017948zm321.208343,52.017948c-28.762038,0 -52.162039,-23.335347 -52.162039,-52.017948s23.4,-52.017948 52.162039,-52.017948s52.162039,23.335361 52.162039,52.017948s-23.399987,52.017948 -52.162039,52.017948z"/>
</svg>