<!-- Generated by IcoMoon.io -->
<svg version="1.1" xmlns="http://www.w3.org/2000/svg" width="384" height="448" viewBox="0 0 384 448">
<title></title>
<g id="icomoon-ignore">
</g>
<path d="M299.25 256h-27.25c-8.75 0-16-7.25-16-16v-32c0-8.75 7.25-16 16-16h27.25c-10.75-36-39.25-64.5-75.25-75.25v27.25c0 8.75-7.25 16-16 16h-32c-8.75 0-16-7.25-16-16v-27.25c-36 10.75-64.5 39.25-75.25 75.25h27.25c8.75 0 16 7.25 16 16v32c0 8.75-7.25 16-16 16h-27.25c10.75 36 39.25 64.5 75.25 75.25v-27.25c0-8.75 7.25-16 16-16h32c8.75 0 16 7.25 16 16v27.25c36-10.75 64.5-39.25 75.25-75.25zM384 208v32c0 8.75-7.25 16-16 16h-35.75c-12.25 53.75-54.5 96-108.25 108.25v35.75c0 8.75-7.25 16-16 16h-32c-8.75 0-16-7.25-16-16v-35.75c-53.75-12.25-96-54.5-108.25-108.25h-35.75c-8.75 0-16-7.25-16-16v-32c0-8.75 7.25-16 16-16h35.75c12.25-53.75 54.5-96 108.25-108.25v-35.75c0-8.75 7.25-16 16-16h32c8.75 0 16 7.25 16 16v35.75c53.75 12.25 96 54.5 108.25 108.25h35.75c8.75 0 16 7.25 16 16z"></path>
</svg>
