<?xml version="1.0" encoding="utf-8"?>
<svg version="1.1" id="Layer_1" 
	xmlns="http://www.w3.org/2000/svg" 
	xmlns:xlink="http://www.w3.org/1999/xlink" x="0px" y="0px" viewBox="0 0 512 512" style="enable-background:new 0 0 512 512;" xml:space="preserve">
	<path d="M449.8,341.3c-29.2-45.6-79.2-65.7-111.8-44.8c-2.8,1.8-5.4,3.9-7.8,6.1l-34.8-54.4l80.3-126c6.6-12.1,9-26.6,5.8-41.1
	c-3.1-13.9-10.7-25.6-21-33.8l-5.4-3.4L260,192.7L164.9,43.9l-5.4,3.4c-10.3,8.2-18,19.9-21,33.8c-3.2,14.5-0.8,29,5.8,41.1
	l80.3,126l-34.8,54.4c-2.4-2.3-5-4.3-7.8-6.1c-32.6-20.8-82.6-0.8-111.8,44.8c-29.2,45.6-26.4,99.4,6.1,120.3
	c32.6,20.8,82.6,0.8,111.8-44.8L260,303.9l71.9,112.8c29.2,45.6,79.2,65.7,111.8,44.8C476.2,440.7,479,386.9,449.8,341.3
	L449.8,341.3z M152.7,394.1c-13.1,20.5-30,30.5-41.4,33c0,0,0,0,0,0c-3.7,0.8-8.9,1.3-12.4-0.9c-3.9-2.5-6.5-9.1-6.9-17.6
	c-0.7-13.8,4.2-30.1,13.5-44.6c13.1-20.5,30-30.5,41.4-33c3.7-0.8,8.9-1.3,12.4,0.9c3.9,2.5,6.5,9.1,6.9,17.6
	C167,363.3,162,379.6,152.7,394.1z M260,267.9c-7.7,0-14-6.3-14-14s6.3-14,14-14c7.7,0,14,6.3,14,14S267.7,267.9,260,267.9z
	 M427.9,408.5c-0.4,8.5-3,15.1-6.9,17.6c-3.5,2.2-8.7,1.7-12.4,0.9c0,0,0,0,0,0c-11.4-2.5-28.2-12.5-41.4-33
	c-9.3-14.5-14.2-30.8-13.5-44.6c0.4-8.5,3-15.1,6.9-17.6c3.5-2.2,8.7-1.7,12.4-0.9c11.4,2.5,28.2,12.5,41.4,33
	C423.7,378.4,428.6,394.7,427.9,408.5L427.9,408.5z"/>
</svg>
