<!-- Generated by IcoMoon.io -->
<svg version="1.1" xmlns="http://www.w3.org/2000/svg" width="512" height="512" viewBox="0 0 512 512">
<title></title>
<g id="icomoon-ignore">
</g>
<path d="M456.913 339.847c-33.342-52.102-90.539-75.032-127.755-51.217-3.214 2.058-6.167 4.402-8.872 6.991l-39.726-62.131 91.731-143.986c7.508-13.865 10.279-30.379 6.633-46.987-3.486-15.875-12.258-29.219-24.051-38.613l-6.139-3.904-108.734 170.057-108.735-170.057-6.138 3.903c-11.793 9.395-20.565 22.738-24.050 38.613-3.646 16.608-0.875 33.122 6.632 46.987l91.732 143.986-39.727 62.131c-2.705-2.589-5.658-4.934-8.872-6.991-37.216-23.815-94.413-0.885-127.755 51.217-33.34 52.1-30.199 113.643 7.016 137.457 37.215 23.816 94.412 0.885 127.754-51.216l82.143-128.935 82.144 128.936c33.342 52.101 90.539 75.032 127.754 51.216 37.214-23.815 40.355-85.358 7.015-137.457zM117.426 400.215c-15.009 23.452-34.267 34.863-47.286 37.723-0.002 0-0.002 0-0.002 0-4.245 0.934-10.147 1.505-14.162-1.064-4.449-2.847-7.402-10.374-7.9-20.138-0.808-15.822 4.821-34.418 15.444-51.017 15.007-23.453 34.265-34.863 47.281-37.722 4.248-0.933 10.154-1.505 14.168 1.063 4.449 2.847 7.401 10.375 7.899 20.136 0.809 15.825-4.82 34.42-15.442 51.019zM240 256c-8.836 0-16-7.164-16-16s7.164-16 16-16 16 7.164 16 16-7.164 16-16 16zM431.925 416.735c-0.498 9.764-3.451 17.291-7.9 20.138-4.015 2.569-9.917 1.998-14.162 1.064 0 0 0 0-0.002 0-13.020-2.859-32.277-14.271-47.286-37.723-10.622-16.599-16.251-35.194-15.442-51.019 0.498-9.761 3.45-17.289 7.899-20.136 4.014-2.568 9.92-1.996 14.168-1.063 13.017 2.858 32.274 14.269 47.281 37.722 10.623 16.599 16.251 35.195 15.444 51.017z"></path>
</svg>
