<?xml version="1.0" encoding="utf-8"?>
<!-- Generator: Adobe Illustrator 24.0.3, SVG Export Plug-In . SVG Version: 6.00 Build 0)  -->
<svg version="1.1" id="Layer_1" xmlns="http://www.w3.org/2000/svg" xmlns:xlink="http://www.w3.org/1999/xlink" x="0px" y="0px"
	 viewBox="0 0 768 768" style="enable-background:new 0 0 768 768;" xml:space="preserve">
<title></title>
<g id="icomoon-ignore">
</g>
<path d="M611.9,534.5c-40.1-41.7-60.1-91.9-60.1-150.5s20-108.7,60.1-150.5l40.7,42.4c-28.4,29.6-42.7,65.6-42.7,108
	s14.2,78.4,42.7,108L611.9,534.5z M694.3,448.6c-16.8-17.5-25.2-39-25.2-64.6s8.4-47.1,25.2-64.6l62.1,64.6L694.3,448.6z
	 M528.5,621.3C465.8,556,434.4,476.9,434.4,384s31.4-172,94.1-237.3l41.7,43.4C518.5,244,492.6,308.6,492.6,384s25.9,140,77.6,193.9
	L528.5,621.3z M156.1,233.5c40.1,41.7,60.1,91.9,60.1,150.5s-20,108.7-60.1,150.5L115.4,492c28.4-29.6,42.7-65.6,42.7-108
	s-14.2-78.4-42.7-108L156.1,233.5z M239.5,146.7c62.7,65.3,94.1,144.4,94.1,237.3s-31.4,172-94.1,237.3l-41.7-43.4
	c51.7-53.9,77.6-118.5,77.6-193.9s-25.9-140-77.6-193.9L239.5,146.7z M73.7,319.4c16.8,17.5,25.2,39,25.2,64.6s-8.4,47.1-25.2,64.6
	L11.6,384L73.7,319.4z"/>
</svg>
