<!-- Generated by IcoMoon.io -->
<svg version="1.1" xmlns="http://www.w3.org/2000/svg" width="512" height="512" viewBox="0 0 512 512">
<title></title>
<g id="icomoon-ignore">
</g>
<path d="M433.941 78.059c-18.746-18.745-49.137-18.745-67.882 0l-64.545 64.545-45.514-45.514-50.912 50.912 39.909 39.909-177.045 177.045c-3.018 3.018-4.3 7.109-3.862 11.046h-0.092v60c0 6.627 5.373 12 12 12h60c0 0 0.999 0 1.5 0 3.454 0 6.909-1.318 9.546-3.954l177.045-177.045 39.909 39.909 50.912-50.912-45.514-45.514 64.545-64.545c18.745-18.746 18.745-49.137 0-67.882zM128.909 424h-40.909v-40.909l176.091-176.090 40.908 40.908-176.090 176.091z"></path>
</svg>
