<?xml version="1.0" encoding="utf-8"?>
<!-- Generator: Adobe Illustrator 24.0.3, SVG Export Plug-In . SVG Version: 6.00 Build 0)  -->
<svg version="1.1" id="Layer_1" xmlns="http://www.w3.org/2000/svg" xmlns:xlink="http://www.w3.org/1999/xlink" x="0px" y="0px"
	 viewBox="0 0 768 768" style="enable-background:new 0 0 768 768;" xml:space="preserve">
<style type="text/css">
	.st0{fill:#FFFFFF;}
</style>
<title></title>
<g id="icomoon-ignore">
</g>
<g>
	<path d="M288,387.3V384H160.5v-64.5c0-62,21.8-114.8,65.2-158.2S322,96,384,96c51.9,0,97.3,15.3,136.3,45.7l44.3-46.9
		C513.4,52.6,453.2,31.5,384,31.5c-80,0-148,28.2-204,84.8S96,240.5,96,319.5v225c0,13.5,2.6,26,7.7,37.6L288,387.3z"/>
	<path d="M151.8,631.7c12.3,5.9,25.7,8.8,40.2,8.8h96V487.7L151.8,631.7z"/>
	<path d="M568,191.6c26.3,37,39.5,79.6,39.5,127.9V384H480v256.5h96c26,0,48.5-9.5,67.5-28.5s28.5-41.5,28.5-67.5v-225
		c0-66.3-19.7-124.7-59.2-175.2L568,191.6z"/>
</g>
<g>
	<line class="st0" x1="47.9" y1="660.7" x2="646" y2="28.3"/>
	<rect x="-88.3" y="310" transform="matrix(0.6872 -0.7265 0.7265 0.6872 -141.7698 359.8355)" width="870.4" height="69"/>
</g>
</svg>
