<?xml version="1.0" encoding="utf-8"?>
<svg version="1.1" id="Layer_1" 
	xmlns="http://www.w3.org/2000/svg" 
	xmlns:xlink="http://www.w3.org/1999/xlink" x="0px" y="0px" viewBox="0 0 768 768" style="enable-background:new 0 0 768 768;" xml:space="preserve">
	<path d="M198,624.9c-68-58-102-131-102-219c0-80,28-148,84-204s124-84,204-84s148,28,204,84s84,124,84,204c0,36-10,75.5-30,118.5
	s-44,76.5-72,100.5l-45-45c23-19,42.5-45.5,58.5-79.5s24-65.5,24-94.5c0-62-21.8-114.8-65.2-158.2S446,182.4,384,182.4
	s-114.8,21.8-158.2,65.2s-65.2,96.2-65.2,158.2c0,29,8,60.5,24,94.5s35.5,60,58.5,78L198,624.9z M347.6,399.4l187.9-222.1l48.1,40.7
	L395.7,440.1L347.6,399.4z"/>
</svg>
