<!-- Generated by IcoMoon.io -->
<svg version="1.1" xmlns="http://www.w3.org/2000/svg" width="384" height="448" viewBox="0 0 384 448">
<title></title>
<g id="icomoon-ignore">
</g>
<path d="M352.001 210.667v26.667c0 85-67.291 146.667-160.001 146.667s-160.001-61.667-160.001-146.667v-26.667c0-7.291 6.041-13.333 13.333-13.333h80c7.291 0 13.333 6.041 13.333 13.333v26.667c0 38.125 44.375 40 53.334 40s53.334-1.875 53.334-40v-26.667c0-7.291 6.041-13.333 13.333-13.333h80c7.291 0 13.333 6.041 13.333 13.333zM138.667 77.333v80c0 7.291-6.041 13.333-13.333 13.333h-80c-7.291 0-13.333-6.041-13.333-13.333v-80c0-7.291 6.041-13.333 13.333-13.333h80c7.291 0 13.333 6.041 13.333 13.333zM352.001 77.333v80c0 7.291-6.041 13.333-13.333 13.333h-80c-7.291 0-13.333-6.041-13.333-13.333v-80c0-7.291 6.041-13.333 13.333-13.333h80c7.291 0 13.333 6.041 13.333 13.333z"></path>
</svg>
