<!-- Generated by IcoMoon.io -->
<svg version="1.1" xmlns="http://www.w3.org/2000/svg" width="512" height="512" viewBox="0 0 512 512">
<title></title>
<g id="icomoon-ignore">
</g>
<path d="M256 32c141.385 0 256 114.615 256 256 0 96.396-53.288 180.333-132.004 224h-247.992c-78.716-43.667-132.004-127.604-132.004-224 0-141.385 114.615-256 256-256zM400.957 432.957c38.719-38.72 60.043-90.199 60.043-144.957h-45v-32h42.519c-3.507-22.499-10.695-44.073-21.282-64h-53.237v-32h32.142c-4.719-5.881-9.776-11.548-15.185-16.957-23.111-23.11-50.77-40.019-80.957-49.899v34.856h-32v-42.52c-10.491-1.634-21.18-2.48-32-2.48s-21.509 0.845-32 2.48v42.52h-32v-34.856c-30.186 9.88-57.846 26.788-80.957 49.899-5.409 5.409-10.466 11.076-15.185 16.957h32.142v32h-53.238c-10.587 19.927-17.776 41.501-21.282 64h42.52v32h-45c0 54.758 21.324 106.237 60.043 144.957 5.355 5.355 10.962 10.364 16.78 15.043h96.177l18.286-256h27.428l18.286 256h96.177c5.818-4.679 11.426-9.689 16.78-15.043z"></path>
</svg>
