<?xml version="1.0" encoding="utf-8"?>
<!-- Generator: Adobe Illustrator 24.0.3, SVG Export Plug-In . SVG Version: 6.00 Build 0)  -->
<svg version="1.1" id="Layer_1" xmlns="http://www.w3.org/2000/svg" xmlns:xlink="http://www.w3.org/1999/xlink" x="0px" y="0px"
	 viewBox="0 0 512 512" style="enable-background:new 0 0 512 512;" xml:space="preserve">
<title></title>
<g id="icomoon-ignore">
</g>
<path d="M256,69.3c112.8,0,204.3,91.5,204.3,204.3c0,76.9-42.5,143.9-105.3,178.7H157.1C94.3,417.5,51.7,350.5,51.7,273.6
	C51.7,160.8,143.2,69.3,256,69.3z M371.7,389.2c30.9-30.9,47.9-72,47.9-115.7h-35.9V248h33.9c-2.8-18-8.5-35.2-17-51.1h-42.5v-25.5
	h25.6c-3.8-4.7-7.8-9.2-12.1-13.5c-18.4-18.4-40.5-31.9-64.6-39.8v27.8h-25.5V112c-8.4-1.3-16.9-2-25.5-2c-8.6,0-17.2,0.7-25.5,2
	v33.9h-25.5v-27.8c-24.1,7.9-46.2,21.4-64.6,39.8c-4.3,4.3-8.4,8.8-12.1,13.5h25.6V197h-42.5c-8.4,15.9-14.2,33.1-17,51.1h33.9v25.5
	H92.4c0,43.7,17,84.8,47.9,115.7c4.3,4.3,8.7,8.3,13.4,12h76.7L245.1,197h21.9l14.6,204.3h76.7C362.9,397.5,367.4,393.5,371.7,389.2
	z"/>
</svg>
