<?xml version="1.0" encoding="utf-8"?>
<!-- Svg Vector Icons : http://www.onlinewebfonts.com/icon -->
<!DOCTYPE svg PUBLIC "-//W3C//DTD SVG 1.1//EN" "http://www.w3.org/Graphics/SVG/1.1/DTD/svg11.dtd">
<svg version="1.1" xmlns="http://www.w3.org/2000/svg" xmlns:xlink="http://www.w3.org/1999/xlink" x="0px" y="0px" viewBox="0 0 1000 1000" enable-background="new 0 0 1000 1000" xml:space="preserve">
<metadata> Svg Vector Icons : http://www.onlinewebfonts.com/icon </metadata>
<g><g transform="translate(0.000000,511.000000) scale(0.100000,-0.100000)"><path d="M4535.2,4873.3c-595.9-59.4-1220.5-241.4-1733.9-502C392.9,3147-582.4,244.3,605.5-2166c268.2-546,553.7-935,994.4-1362.2c492.4-477.1,1005.9-808.5,1640.1-1055.7c235.7-92,220.3-93.9,283.6,23c78.5,145.6,235.7,356.4,377.4,503.9c235.7,245.2,515.4,415.8,797,484.7c136,32.6,457.9,32.6,593.9,0c130.3-32.6,388.9-149.4,507.7-231.8c226.1-155.2,500.1-465.6,651.4-737.6c38.3-69,78.6-124.5,90.1-124.5c44.1,0,475.2,182,682.1,285.5c463.7,237.6,804.7,482.8,1186,852.6c442.6,427.3,728.1,818.1,994.4,1362.2c239.5,490.5,367.9,898.6,452.2,1437c49.8,321.9,59.4,1036.5,19.2,1322c-162.9,1138.1-628.4,2084.6-1404.4,2862.5c-758.7,756.8-1688,1222.4-2776.2,1391C5454.8,4882.8,4780.4,4900.1,4535.2,4873.3z M5295.8,3779.2c151.4-70.9,272.1-187.8,346.8-339.1c57.5-116.9,61.3-139.9,61.3-318.1c0-172.4-5.7-203.1-53.6-297c-70.9-137.9-201.2-270.2-337.2-337.2c-97.7-49.8-124.5-55.6-308.5-55.6c-182,0-210.8,5.7-306.6,53.6c-139.9,72.8-258.7,189.7-331.5,329.6c-57.5,107.3-61.3,126.5-61.3,316.1c0,182,5.7,210.8,51.7,300.8c97.7,183.9,206.9,285.5,396.6,364C4904.9,3859.7,5138.7,3852,5295.8,3779.2z M3161.4,2865.3c143.7-78.6,258.7-197.3,325.7-342.9c44.1-93.9,51.7-134.1,51.7-291.2c0-166.7-5.7-193.5-61.3-308.5c-74.7-151.4-195.4-268.2-346.8-339.1c-93.9-44.1-134.1-51.7-291.2-51.7s-197.3,7.7-291.2,51.7c-145.6,67.1-283.6,199.3-352.5,335.3c-51.7,101.5-55.6,128.4-55.6,312.3c0,239.5,32.6,327.6,174.4,479c168.6,180.1,297,231.8,553.7,224.2C3021.6,2928.5,3054.1,2920.9,3161.4,2865.3z M7478.1,2876.8c134.1-65.2,272.1-203.1,339.1-339.1c46-93.9,51.7-126.5,51.7-306.6c0-166.7-7.7-216.5-42.1-293.1c-63.2-134.1-216.5-285.5-356.4-350.6c-103.5-49.8-139.9-55.6-300.8-55.6c-157.1,0-197.3,7.7-291.2,51.7c-151.3,70.9-272.1,187.8-346.8,339.1c-55.6,115-61.3,141.8-61.3,308.5c0,157.1,7.7,197.3,49.8,289.3c88.1,185.8,233.8,321.9,421.5,388.9C7077.7,2959.2,7344,2942,7478.1,2876.8z M2230.3,713.7c151.4-70.9,272.1-187.8,346.8-339.1c57.5-116.9,61.3-139.9,61.3-318c0-172.4-5.7-203.1-53.6-297c-70.9-138-201.2-270.2-337.2-337.2c-97.7-49.8-124.5-55.5-308.5-55.5s-210.8,5.7-308.5,55.5c-136,67.1-266.3,199.3-337.2,337.2c-47.9,95.8-53.6,124.5-53.6,306.6c0,182,5.7,210.7,51.7,300.8c97.7,183.9,206.9,285.5,396.6,364C1839.4,794.2,2073.2,786.5,2230.3,713.7z M8361.3,713.7c151.4-70.9,272.1-187.8,346.8-339.1c57.5-116.9,61.3-139.9,61.3-318c0-172.4-5.7-203.1-53.7-297c-70.9-138-201.2-270.2-337.2-337.2c-97.7-49.8-124.6-55.5-308.5-55.5s-210.7,5.7-308.5,55.5c-136,67.1-266.3,199.3-337.2,337.2c-47.9,95.8-53.6,124.5-53.6,306.6c0,182,5.7,210.7,51.7,300.8c97.7,183.9,206.9,285.5,396.6,364C7970.5,794.2,8204.2,786.5,8361.3,713.7z"/></g></g>
</svg>