<?xml version="1.0" encoding="utf-8"?>
<!-- Generator: Adobe Illustrator 24.0.3, SVG Export Plug-In . SVG Version: 6.00 Build 0)  -->
<svg version="1.1" id="Layer_1" xmlns="http://www.w3.org/2000/svg" xmlns:xlink="http://www.w3.org/1999/xlink" x="0px" y="0px"
	 viewBox="0 0 277 276" style="enable-background:new 0 0 277 276;" xml:space="preserve">
<path d="M138.2,18c-66,0-119.5,53.6-119.5,119.6s53.6,119.6,119.6,119.6s119.6-53.6,119.6-119.6S204.2,18,138.2,18z M113.6,85.6
	c2.4-15.2,5.1-27.4,7.6-42.6c0.4-1.1,0.9-1.8,1.3-2.2c1.7-1.7,4-1.6,11.9-1.8c0.9,0,1.7,0,2.3,0c-0.1,0-0.1,0-0.2,0h1.1
	c-0.3,0-0.6,0-1.1,0c0.7,0,1.8,0,3.2,0c8-0.1,10.3-0.2,12,1.5c0.4,0.4,1,1.1,1.3,2.2c2.7,15.1,5.7,27.3,8.5,42.4
	c0.1,0.4,0.1,1.2-0.2,1.9c-0.1,0.2-0.4,0.7-0.9,1.1c-2.7,2.5-7.5,1.6-15.8,0.7c-1.4-0.2-3.6-0.2-6.4-0.3c-2.9,0-5.3,0.1-7,0.3
	c-8.6,1.1-13.7,2.4-16.7-0.3c-0.4-0.4-0.8-0.8-0.9-1.1C113.6,86.9,113.6,86.2,113.6,85.6z M107.8,182.4c-0.1,0.6-0.4,1.1-0.4,1.3
	c-0.4,0.7-1.1,1.1-1.6,1.2c-14.3,5.6-26.3,9.4-40.7,14.9c-1.1,0.3-2,0.1-2.6,0c-2.3-0.6-3.4-2.7-7.5-9.5c-0.7-1.1-1.3-2.1-1.7-2.7
	c0.2,0.4,0.4,0.6,0.5,0.9l-0.6-1.1c0,0,0.1,0.1,0.1,0.2c-0.4-0.5-0.7-1.2-1.1-2c-4.1-6.8-5.3-8.8-4.8-11.1c0.2-0.5,0.4-1.3,1.2-2.3
	c11.7-10,20.7-18.7,32.3-28.7c0.4-0.3,1-0.7,1.8-0.8c0.3,0,0.8,0,1.4,0.2c3.5,1.1,5.1,5.7,8.6,13.3c0.5,1.3,1.7,3.2,3,5.6
	c1.5,2.6,2.7,4.6,3.7,5.9C104.8,174.7,108.6,178.4,107.8,182.4z M138.2,164.6c-14.9,0-27.1-12.1-27.1-27.1
	c0-14.9,12.1-27.1,27.1-27.1c14.9,0,27.1,12.1,27.1,27.1S153.2,164.6,138.2,164.6z M225.3,183.6l-0.5,1.1
	C224.9,184.4,225.1,184.1,225.3,183.6c-0.4,0.6-0.9,1.7-1.6,2.9c-3.8,7-4.8,9.1-7.1,9.8c-0.5,0.2-1.4,0.4-2.6,0.2
	c-14.6-4.9-26.7-8.1-41.3-13c-0.4-0.2-1.1-0.4-1.6-1.1c-0.1-0.2-0.4-0.7-0.5-1.3c-0.9-3.6,2.2-7.3,7-14.1c0.8-1.1,1.9-3.1,3.3-5.5
	c1.4-2.6,2.5-4.7,3.1-6.3c3.2-8,4.4-13.2,8.2-14.6c0.5-0.2,1.1-0.3,1.4-0.3c0.8,0,1.4,0.4,1.9,0.7c12.1,9.5,21.6,17.8,33.7,27.1
	c0.8,0.9,1.1,1.7,1.3,2.2c0.7,2.3-0.5,4.3-4.2,11.3C225.9,182.5,225.5,183.1,225.3,183.6L225.3,183.6z"/>
</svg>
