<?xml version="1.0" encoding="utf-8"?>
<svg version="1.1" id="Layer_1" 
	xmlns="http://www.w3.org/2000/svg" 
	xmlns:xlink="http://www.w3.org/1999/xlink" x="0px" y="0px" viewBox="0 0 288 287.88" style="enable-background:new 0 0 288 287.88;" xml:space="preserve">
	<style type="text/css">
		.st0{display:none;fill:none;stroke:#000000;stroke-width:7;stroke-miterlimit:10;}
		.st1{fill:none;stroke:#000000;stroke-width:12;stroke-miterlimit:10;}
	</style>
	<path class="st0" d="M143.55,36.15c0.72,0.01,2.08,0.01,3.78,0.02c8.99,0.04,11.65-0.06,13.55,1.83c0.45,0.45,1.07,1.21,1.51,2.47
	c2.9,17.15,6.17,30.97,9.07,48.12c0.08,0.52,0.13,1.36-0.28,2.2h0c-0.18,0.3-0.51,0.77-1.02,1.23c-3.46,3.05-9.34-0.13-18.96-0.73
	c-1.77-0.11-4.05-0.16-6.72,0.04"/>
	<path class="st1" d="M143.77,31.11c-0.72,0.01-2.08,0.04-3.78,0.06c-8.98,0.13-11.65,0.06-13.53,1.97
	c-0.44,0.45-1.05,1.22-1.48,2.49c-2.72,17.18-5.84,31.04-8.57,48.21c-0.08,0.52-0.12,1.37,0.3,2.2h0c0.18,0.29,0.51,0.77,1.04,1.22
	c3.47,3,9.27,1.42,18.93,0.26c1.86-0.22,4.56-0.29,7.89-0.31c3.11,0.07,5.59,0.11,7.18,0.28c9.43,1.02,14.76,2.06,17.88-0.77
	c0.55-0.49,0.87-1,1.01-1.24h0c0.4-0.84,0.34-1.69,0.25-2.21c-3.08-17.12-6.5-30.91-9.58-48.02c-0.45-1.26-1.08-2.01-1.53-2.45
	c-1.92-1.87-4.59-1.75-13.57-1.69c-1.7,0.01-3.06,0.02-3.78,0.02"/>
	<circle class="st1" cx="144.22" cy="142.56" r="30.67"/>
	<circle class="st1" cx="144.22" cy="142.56" r="135.27"/>
	<path class="st1" d="M48.23,199.19c0.37,0.62,1.08,1.78,1.96,3.23c4.65,7.69,5.93,10.03,8.53,10.69c0.61,0.16,1.58,0.29,2.89,0.02
	c16.2-6.32,29.74-10.62,45.95-16.93c0.49-0.2,1.24-0.59,1.75-1.37h0c0.16-0.31,0.4-0.83,0.53-1.51c0.84-4.51-3.45-8.72-9.33-16.47
	c-1.13-1.49-2.55-3.79-4.25-6.65c-1.51-2.72-2.73-4.88-3.38-6.34c-3.87-8.66-5.67-13.78-9.69-15.05c-0.7-0.22-1.31-0.25-1.58-0.25
	l0,0c-0.93,0.08-1.63,0.56-2.03,0.9c-13.22,11.3-23.4,21.2-36.63,32.5c-0.86,1.03-1.19,1.95-1.35,2.56
	c-0.65,2.61,0.81,4.84,5.39,12.57c0.87,1.47,1.56,2.63,1.92,3.26"/>
	<path class="st1" d="M242.12,195.83c0.34-0.64,0.97-1.84,1.77-3.34c4.21-7.94,5.56-10.24,4.79-12.81c-0.18-0.6-0.56-1.51-1.47-2.49
	c-13.74-10.66-24.39-20.07-38.13-30.72c-0.42-0.32-1.14-0.76-2.07-0.8l0,0c-0.35,0.02-0.92,0.08-1.57,0.32
	c-4.3,1.6-5.71,7.44-9.34,16.47c-0.7,1.74-1.94,4.14-3.52,7.06c-1.56,2.69-2.79,4.85-3.71,6.16c-5.44,7.77-8.91,11.95-7.94,16.05
	c0.17,0.72,0.46,1.25,0.6,1.48l0,0c0.55,0.76,1.32,1.11,1.81,1.28c16.49,5.54,30.22,9.19,46.7,14.73c1.32,0.21,2.29,0.02,2.89-0.16
	c2.57-0.78,3.74-3.18,8.01-11.08c0.81-1.5,1.46-2.69,1.8-3.32"/>
</svg>
