<!-- Generated by IcoMoon.io -->
<svg version="1.1" xmlns="http://www.w3.org/2000/svg" width="768" height="768" viewBox="0 0 768 768">
<title></title>
<g id="icomoon-ignore">
</g>
<path d="M384 127.5v135l-67.5-67.5zM136.5 96l535.5 535.5-40.5 40.5-66-66q-49.5 42-117 58.5v-66q37.5-10.5 72-37.5l-136.5-136.5v216l-160.5-160.5h-127.5v-192h151.5l-151.5-151.5zM607.5 384q0-76.5-44.25-135t-114.75-79.5v-66q97.5 21 160.5 99.75t63 180.75q0 70.5-33 133.5l-48-49.5q16.5-40.5 16.5-84zM528 384q0 13.5-1.5 19.5l-78-78v-70.5q33 16.5 56.25 54t23.25 75z"></path>
</svg>
