<svg xmlns="http://www.w3.org/2000/svg" xmlns:xlink="http://www.w3.org/1999/xlink" version="1.1" x="0px" y="0px" viewBox="10 10 90 90" xml:space="preserve"><g><path d="M-225.911-71.173c0-1.07-0.868-1.938-1.939-1.938h-34.5c-1.07,0-1.938,0.868-1.938,1.938c0,1.071,0.868,1.939,1.938,1.939   h34.5C-226.779-69.234-225.911-70.102-225.911-71.173z"/><path d="M-214.405-43.99h-34.5c-1.071,0-1.939,0.868-1.939,1.939s0.868,1.938,1.939,1.938h34.5c1.07,0,1.938-0.868,1.938-1.938   S-213.334-43.99-214.405-43.99z"/><path d="M-219.189-56.635c0-1.07-0.868-1.938-1.939-1.938h-34.5c-1.071,0-1.939,0.868-1.939,1.938c0,1.071,0.868,1.939,1.939,1.939   h34.5C-220.057-54.696-219.189-55.564-219.189-56.635z"/></g><g><path d="M-230.08-61.144l1.929-1.006c-2.026-3.846-6.078-5.979-10.186-5.985c-1.776,0-3.585,0.404-5.248,1.276   c-4.1,2.142-6.535,6.206-6.532,10.463c-0.001,1.741,0.409,3.512,1.255,5.16c2.029,3.936,6.092,6.164,10.249,6.165   c1.802,0,3.639-0.422,5.331-1.319c4.065-2.145,6.467-6.171,6.46-10.404c0.001-1.807-0.436-3.644-1.329-5.356L-230.08-61.144z    M-235.319-50.234c-1.041,0.551-2.165,0.812-3.293,0.813c-2.62,0.002-5.171-1.425-6.379-3.801   c-0.531-1.036-0.775-2.108-0.776-3.174c0.003-2.597,1.471-5.174,4.201-6.609c1.003-0.526,2.109-0.779,3.229-0.779   c2.614-0.006,5.181,1.409,6.328,3.646l0,0c0.573,1.102,0.836,2.234,0.837,3.345C-231.179-54.199-232.604-51.683-235.319-50.234z"/><path d="M-209.028-62.078c-0.059-0.402-0.138-0.804-0.353-1.303l-0.004-0.025l-0.079-0.188c-0.018-0.036-0.018-0.058-0.038-0.095   l-0.164-0.283l-0.184-0.32c-0.651-1.111-1.711-1.574-2.512-1.77c-0.833-0.204-1.599-0.225-2.326-0.229   c-0.745,0.001-1.447,0.036-2.001,0.035l-0.544-0.014c-0.688-0.046-1.168-0.44-1.729-1.358c-0.29-0.49-0.552-1.27-0.544-1.949   l0.279-1.196c0.378-0.731,0.844-1.706,1.238-2.647l0.519-1.372c0.137-0.464,0.271-0.815,0.29-1.501l-0.32-1.247l-0.003-0.005   l-0.348-0.603l-0.596-0.699c-0.512-0.418-0.997-0.687-1.707-1.099c-2.057-1.166-5.51-2.913-7.568-4.06   c-0.634-0.335-1.277-0.707-2.324-0.733c-0.742-0.015-1.512,0.308-1.985,0.679l-1.15,1.166c-1.129,1.411-2.211,2.795-3.318,4.118   l-0.304,0.138l-1.495,0.043l-1.285-0.039l-0.477-0.213c-1.043-1.245-2.056-2.555-3.097-3.907l-1.173-1.164   c-0.497-0.358-1.232-0.629-1.935-0.618c-0.919,0.011-1.601,0.333-2.197,0.667c-2.876,1.646-5.746,3.303-8.609,4.97l-1.421,1.183   c-0.444,0.542-0.727,1.362-0.711,2.064c0.006,0.718,0.194,1.279,0.401,1.793c0.673,1.631,1.329,3.305,2.03,4.987   c-0.699,1.018-1.137,1.915-1.56,2.581l-0.429,0.314c-1.64,0.298-3.334,0.527-5.096,0.796c-0.841,0.154-1.82,0.261-2.776,1.251   c-0.896,1.059-0.886,2.093-0.919,2.918c-0.039,2.501-0.246,6.696-0.247,8.991l0.025,1.078l0.05,0.493l0.229,0.683l0.007,0.04   l0.029,0.066l0.043,0.129l0.077,0.134l0.003,0.004h0l0.015,0.027l0.012,0.02l0,0l0.242,0.418c0.723,1.106,1.489,1.258,2.069,1.468   c1.742,0.471,3.817,0.402,5.116,0.5l1,0.289l0.997,1.146c0.51,0.752,0.6,1.169,0.609,1.591c0.004,0.436-0.155,1.038-0.602,1.915   c-0.337,0.663-0.758,1.549-1.116,2.41l-0.474,1.264c-0.126,0.432-0.252,0.764-0.269,1.425l0.324,1.248l0.347,0.601l1.884-1.087   l-1.883,1.088l0.637,0.721c0.472,0.363,0.936,0.621,1.64,1.026c2.034,1.15,5.524,2.957,7.598,4.113   c0.632,0.334,1.279,0.704,2.321,0.729c0.74,0.015,1.511-0.306,1.986-0.677l1.153-1.17c1.109-1.391,2.157-2.743,3.236-4.017   l0.508-0.225l0.379-0.012l1.407,0.018l1.2-0.059c1.101,1.444,2.216,2.955,3.478,4.426l0.623,0.501l1.555,0.833   c0.666,0.357,1.46,0.344,2.115-0.034l10.154-5.862c0.709-0.41,1.128-1.181,1.085-1.999l-0.111-2.087l-0.115-0.59   c-0.592-1.721-1.275-3.245-1.827-4.725l0.055-0.389c0.442-0.846,0.927-1.676,1.445-2.486l0.256-0.182   c1.738-0.306,3.52-0.557,5.354-0.847c0.793-0.145,1.756-0.286,2.654-1.239c0.848-1.008,0.864-2.014,0.892-2.791   c0.034-2.309,0.425-5.952,0.43-8.474L-209.028-62.078z M-221.271-75.372l-0.003-0.005l0,0L-221.271-75.372z M-264.928-52.499   L-264.928-52.499l0.018-0.071L-264.928-52.499z M-267.43-49.597L-267.43-49.597l-0.004,0.001L-267.43-49.597z M-265.789-48.308   L-265.789-48.308l-0.001,0.005L-265.789-48.308z M-230.356-33.273l-0.091-0.049c-1.054-1.25-2.066-2.593-3.126-3.983l-1.24-1.151   c-0.566-0.351-1.3-0.541-1.968-0.533l-0.532,0.031l-0.888,0.04l-1.407-0.018l-1.05,0.036l-0.712,0.181l-1.368,0.607l-0.763,0.566   c-1.303,1.507-2.467,3.045-3.63,4.501c-1.547-0.86-3.712-1.999-5.535-2.981c-0.919-0.495-1.749-0.95-2.334-1.289l-0.179-0.108   c0.293-0.77,0.819-1.929,1.18-2.625c0.596-1.176,1.071-2.445,1.075-3.888c0.009-1.401-0.499-2.817-1.389-4.077   c-0.554-0.79-1.157-1.572-2.057-2.215c-0.897-0.647-2.052-1.018-3.249-1.078c-0.993-0.058-2.202-0.077-3.143-0.171l-0.679-0.109   l-0.007-0.436c-0.001-2.072,0.201-6.24,0.245-8.858l0.006-0.001c1.837-0.282,3.75-0.519,5.708-0.894l0.876-0.382l1.204-0.882   l0.509-0.526c0.795-1.185,1.248-2.234,1.737-2.892c0.44-0.595,0.817-1.439,0.809-2.343l-0.336-1.582   c-0.667-1.593-1.309-3.229-1.985-4.877c2.717-1.582,5.441-3.155,8.169-4.717c1.093,1.419,2.2,2.882,3.422,4.313l0.769,0.574   l1.35,0.6l0.745,0.184l1.921,0.059c0.711,0,1.417-0.023,2.114-0.061l0.779-0.19l1.17-0.529l0.761-0.574   c1.299-1.531,2.494-3.085,3.688-4.576l0.001-0.001c1.555,0.865,3.707,1.975,5.518,2.941c0.912,0.486,1.736,0.935,2.313,1.273   l0.23,0.142c-0.314,0.857-0.938,2.234-1.367,3.047c-0.551,1.061-0.768,2.177-0.766,3.197c0.008,1.644,0.511,3.047,1.127,4.125   c0.855,1.533,2.563,3.356,5.219,3.524l0.821,0.023c0.711-0.001,1.404-0.036,2.001-0.036l1.227,0.095l0.056,0.098l0.032,0.055   l0.067,1.121c0.005,2.08-0.362,5.62-0.422,8.225c-1.883,0.298-3.821,0.556-5.798,0.918l-0.872,0.37l-1.047,0.749l-0.555,0.578   c-0.731,1.118-1.408,2.279-2.017,3.471l-0.216,0.682l-0.194,1.36l0.104,1.035c0.636,1.781,1.358,3.37,1.899,4.906l0.022,0.415   L-230.356-33.273z"/></g><path d="M-245.577-53.93c-0.745-0.746-1.109-1.704-1.111-2.682c0.003-0.978,0.367-1.936,1.111-2.682l19.224-19.224  c0.849-0.85,0.849-2.227,0-3.076c-0.849-0.849-2.227-0.849-3.076,0l-19.224,19.224c-1.586,1.584-2.388,3.681-2.385,5.758  c-0.003,2.077,0.799,4.173,2.385,5.758l19.224,19.224c0.849,0.849,2.227,0.849,3.076,0c0.849-0.849,0.849-2.227,0-3.076  L-245.577-53.93z"/><path d="M-228.101-62.37l-19.224-19.224c-0.849-0.85-2.227-0.849-3.076,0c-0.849,0.849-0.849,2.227,0,3.076l19.223,19.223  c0.745,0.746,1.109,1.704,1.111,2.682c-0.002,0.978-0.366,1.936-1.111,2.682l-19.224,19.224c-0.849,0.849-0.849,2.227,0,3.076  c0.849,0.849,2.227,0.849,3.076,0l19.224-19.224c1.586-1.585,2.388-3.682,2.385-5.758C-225.714-58.689-226.515-60.786-228.101-62.37  z"/><path d="M-213.395-47.664l-19.224-19.224c-1.585-1.586-3.682-2.388-5.759-2.385c-2.077-0.003-4.174,0.799-5.758,2.385  l-19.224,19.223c-0.849,0.849-0.849,2.227,0,3.076s2.227,0.849,3.076,0l19.224-19.224c0.746-0.745,1.704-1.109,2.682-1.111  c0.978,0.003,1.936,0.366,2.682,1.111l19.224,19.224c0.849,0.849,2.227,0.849,3.076,0  C-212.546-45.437-212.546-46.815-213.395-47.664z"/><path d="M-213.395-47.664l-19.224-19.224c-1.585-1.586-3.682-2.388-5.759-2.385c-2.076-0.002-4.174,0.799-5.758,2.385  l-19.224,19.224c-0.849,0.849-0.849,2.227,0,3.076s2.227,0.849,3.076,0l19.224-19.224c0.746-0.745,1.704-1.109,2.682-1.111  c0.978,0.003,1.936,0.366,2.682,1.111l19.224,19.224c0.849,0.849,2.227,0.849,3.076,0  C-212.546-45.437-212.546-46.815-213.395-47.664z"/><g><path d="M-238.377-86.103c-11.629,0.001-21.053,9.425-21.054,21.054c0,1.14,0.095,2.26,0.271,3.354l-0.004,0   c0.001,0.007,0.005,0.017,0.006,0.024c0.002,0.012,0.001,0.026,0.003,0.039l0.006-0.001c0.536,3.568,3.221,10.233,7.337,17.094   c5.129,8.468,11.714,16.573,11.746,16.615l1.64,0.804l1.675-0.73c0.044-0.055,7.04-7.916,12.362-16.685   c3.731-6.169,5.984-12.591,6.804-17.188l0.007-0.042c0.168-1.071,0.255-2.168,0.255-3.283   C-217.324-76.678-226.748-86.102-238.377-86.103z M-228.109-46.792c-2.522,4.16-5.508,8.194-7.856,11.171   c-0.917,1.163-1.688,2.101-2.345,2.89c-0.622-0.805-1.351-1.757-2.224-2.934c-2.239-3.02-5.101-7.068-7.556-11.127   c-3.896-6.375-6.501-13.223-6.763-15.48l-0.009-0.062c-0.144-0.882-0.219-1.788-0.219-2.714   c0.017-9.224,7.479-16.687,16.704-16.704c9.224,0.017,16.687,7.48,16.704,16.704c0,0.883-0.069,1.747-0.201,2.59   C-222.565-58.522-224.677-52.437-228.109-46.792z"/><path d="M-238.377-75.325c-5.09,0.002-9.213,4.125-9.214,9.214c0.001,5.089,4.124,9.213,9.214,9.214   c5.089-0.001,9.212-4.125,9.214-9.214C-229.165-71.2-233.288-75.324-238.377-75.325z M-238.377-61.247   c-2.685-0.005-4.859-2.178-4.864-4.864c0.005-2.685,2.179-4.859,4.864-4.864c2.685,0.005,4.859,2.178,4.864,4.864   C-233.518-63.426-235.692-61.252-238.377-61.247z"/></g><path d="M-218.003-81.825h-6.384v-6.123c0-1.201-0.974-2.175-2.175-2.175c-1.201,0-2.175,0.974-2.175,2.175v6.123h-19.986v-6.123  c0-1.201-0.974-2.175-2.175-2.175c-1.201,0-2.175,0.974-2.175,2.175v6.123h-5.678c-6.794,0.008-12.318,5.532-12.326,12.326v34.072  c0.008,6.794,5.532,12.318,12.326,12.326h40.749c6.794-0.008,12.317-5.532,12.326-12.326v-34.072  C-205.685-76.292-211.209-81.817-218.003-81.825z M-258.751-77.475h40.749c4.372,0.008,7.967,3.604,7.975,7.976v3.045h-56.7v-3.045  C-266.719-73.871-263.124-77.467-258.751-77.475z M-218.003-27.451h-40.749c-4.372-0.008-7.968-3.604-7.976-7.976v-26.676h56.7  v26.676C-210.035-31.055-213.631-27.459-218.003-27.451z"/><path d="M-218.511-81.3h-39.733c-6.794,0.008-12.318,5.532-12.326,12.326v24.725c0.008,6.794,5.532,12.317,12.326,12.326h39.733  c6.794-0.008,12.318-5.532,12.326-12.326v-24.725C-206.193-75.768-211.717-81.292-218.511-81.3z M-210.535-68.974v0.182h-5.003  v-7.547C-212.624-75.146-210.541-72.295-210.535-68.974z M-261.217-58.787h-5.002v-5.655h5.002V-58.787z M-261.217-54.437v5.657  h-5.002v-5.657H-261.217z M-256.867-76.95h36.979v40.676h-36.979V-76.95z M-215.538-54.437h5.003v5.657h-5.003V-54.437z   M-215.538-58.787v-5.655h5.003v5.655H-215.538z M-261.217-76.339v7.547h-5.002v-0.182  C-266.213-72.295-264.13-75.145-261.217-76.339z M-266.22-44.25v-0.181h5.002v7.545C-264.13-38.079-266.213-40.93-266.22-44.25z   M-215.538-36.885v-7.545h5.003v0.181C-210.541-40.93-212.624-38.078-215.538-36.885z M-230.123-58.533l-10.983-7.029  c-0.672-0.43-1.517-0.459-2.217-0.076c-0.7,0.383-1.131,1.11-1.131,1.908v14.058c0,0.798,0.431,1.525,1.131,1.908  c0.7,0.383,1.545,0.354,2.217-0.076l10.983-7.03c0.625-0.4,1.003-1.09,1.003-1.832C-229.121-57.442-229.498-58.133-230.123-58.533z   M-240.103-53.646v-6.109l4.773,3.055L-240.103-53.646z"/><path d="M-221.519-92.684h-33.716c-6.794,0.008-12.318,5.532-12.326,12.326v47.492c0.008,6.794,5.532,12.317,12.326,12.326h33.716  c6.794-0.008,12.318-5.532,12.326-12.326v-47.492C-209.202-87.152-214.725-92.676-221.519-92.684z M-219.344-36.072v-4.817h5.801  v4.817H-219.344z M-257.41-76.732v4.441h-5.801v-4.441H-257.41z M-223.694-59.891h-29.366v-28.443h29.366V-59.891z M-257.41-67.941  v4.441h-5.801v-4.441H-257.41z M-257.41-59.15v4.78h-5.801v-4.78H-257.41z M-257.41-50.02v4.78h-5.801v-4.78H-257.41z   M-257.41-40.89v4.817h-5.801v-4.817H-257.41z M-253.06-55.54h29.366v30.65h-29.366V-55.54z M-219.344-45.24v-4.78h5.801v4.78  H-219.344z M-219.344-54.37v-4.78h5.801v4.78H-219.344z M-219.344-63.5v-4.441h5.801v4.441H-219.344z M-219.344-72.291v-4.441h5.801  v4.441H-219.344z M-213.693-81.083h-5.652v-6.804C-216.274-86.981-214.014-84.352-213.693-81.083z M-257.41-87.887v6.804h-5.652  C-262.741-84.352-260.48-86.981-257.41-87.887z M-262.976-31.722h5.566v6.384C-260.344-26.203-262.502-28.647-262.976-31.722z   M-219.344-25.337v-6.384h5.566C-214.253-28.647-216.41-26.203-219.344-25.337z"/><path d="M-219.86-49.163c-3.072,0.001-5.684,1.536-7.441,3.78l-20.368-9.377c0.126-0.62,0.374-1.195,0.374-1.852  c0-0.657-0.249-1.232-0.374-1.852l20.369-9.377c1.757,2.244,4.368,3.779,7.44,3.78c5.302-0.002,9.598-4.297,9.6-9.6  c-0.001-5.303-4.297-9.598-9.6-9.6c-5.302,0.001-9.598,4.297-9.6,9.6c0,0.657,0.249,1.232,0.374,1.852l-20.369,9.377  c-1.757-2.244-4.368-3.779-7.44-3.78c-5.302,0.002-9.598,4.297-9.6,9.6c0.001,5.303,4.297,9.598,9.6,9.6  c3.072-0.001,5.683-1.536,7.44-3.779l20.369,9.377c-0.126,0.62-0.374,1.195-0.374,1.852c0.001,5.303,4.297,9.598,9.6,9.6  c5.302-0.001,9.598-4.297,9.6-9.6C-210.262-44.866-214.558-49.161-219.86-49.163z M-219.86-78.911  c2.898,0.005,5.244,2.351,5.249,5.25c-0.005,2.898-2.351,5.244-5.249,5.249c-2.898-0.005-5.244-2.351-5.249-5.249  C-225.104-76.559-222.758-78.905-219.86-78.911z M-256.895-51.363c-2.898-0.005-5.244-2.351-5.25-5.249  c0.005-2.898,2.351-5.244,5.25-5.249c2.898,0.005,5.244,2.351,5.249,5.249C-251.651-53.714-253.997-51.368-256.895-51.363z   M-219.86-34.314c-2.898-0.005-5.244-2.351-5.249-5.249c0.005-2.898,2.351-5.244,5.249-5.249c2.898,0.005,5.244,2.351,5.249,5.249  C-214.616-36.665-216.962-34.319-219.86-34.314z"/><g><path d="M-238.377-84.93c-15.641,0.002-28.317,12.678-28.318,28.318c0.001,15.641,12.677,28.317,28.318,28.318   c15.641-0.001,28.317-12.677,28.318-28.318C-210.061-72.252-222.737-84.928-238.377-84.93z M-238.377-32.644   c-13.236-0.024-23.944-10.731-23.968-23.967c0.024-13.236,10.732-23.944,23.968-23.968c13.236,0.024,23.944,10.732,23.968,23.968   C-214.433-43.376-225.141-32.668-238.377-32.644z"/><path d="M-238.175-48.459c1.201,0,2.175-0.974,2.175-2.175V-70.45c0-1.201-0.974-2.175-2.175-2.175   c-1.201,0-2.175,0.974-2.175,2.175v19.816C-240.35-49.433-239.376-48.459-238.175-48.459z"/><circle cx="-238.175" cy="-42.416" r="2.256"/></g><g><path d="M-238.377-47.429c1.201,0,2.175-0.974,2.175-2.175V-69.42c0-1.201-0.974-2.175-2.175-2.175   c-1.201,0-2.175,0.974-2.175,2.175v19.816C-240.553-48.403-239.578-47.429-238.377-47.429z"/><circle cx="-238.377" cy="-41.387" r="2.256"/><path d="M-211.199-43.044l-20.271-35.111l-1.884,1.088l1.883-1.088c-1.516-2.637-4.25-4-6.907-3.987   c-2.657-0.013-5.392,1.351-6.907,3.988l-20.272,35.111c-0.732,1.263-1.079,2.645-1.077,3.979c0.008,4.17,3.336,7.971,7.985,7.985   h40.542c4.648-0.014,7.976-3.815,7.984-7.985C-210.12-40.4-210.467-41.781-211.199-43.044z M-218.106-35.431h-40.542   c-2.124-0.004-3.623-1.744-3.635-3.634l0.494-1.803l20.272-35.112c0.717-1.23,1.89-1.8,3.139-1.812   c1.249,0.013,2.422,0.582,3.14,1.812l20.272,35.111l0.494,1.804C-214.484-37.176-215.983-35.435-218.106-35.431z"/></g><path d="M-238.377-84.93c-15.641,0.001-28.317,12.677-28.318,28.318c0.001,15.641,12.677,28.317,28.318,28.318  c15.64-0.001,28.317-12.677,28.318-28.318C-210.061-72.253-222.737-84.929-238.377-84.93z M-238.377-32.644  c-13.236-0.024-23.944-10.732-23.968-23.968c0.024-13.236,10.732-23.943,23.968-23.967c13.236,0.024,23.943,10.731,23.967,23.967  C-214.434-43.376-225.141-32.668-238.377-32.644z"/><path d="M-218.353-76.636c-5.524-5.526-12.784-8.297-20.024-8.294c-7.24-0.002-14.5,2.769-20.024,8.294  c-5.526,5.523-8.297,12.784-8.294,20.024c-0.003,7.24,2.769,14.5,8.294,20.024l0,0c5.523,5.526,12.783,8.297,20.023,8.294  c7.24,0.002,14.5-2.769,20.024-8.294c5.525-5.524,8.297-12.784,8.294-20.024C-210.057-63.852-212.828-71.112-218.353-76.636z   M-238.377-32.644c-6.141-0.002-12.262-2.336-16.948-7.02c-4.684-4.686-7.018-10.807-7.02-16.948  c0.002-5.451,1.95-10.826,5.637-15.255l33.586,33.586C-227.552-34.594-232.928-32.646-238.377-32.644z M-220.046-41.357  l-33.585-33.585c4.429-3.687,9.804-5.635,15.254-5.637c6.141,0.003,12.262,2.336,16.948,7.02c4.684,4.686,7.017,10.807,7.02,16.948  C-214.412-51.162-216.359-45.787-220.046-41.357z"/><g><path d="M-238.377-84.93c-15.641,0.001-28.317,12.677-28.318,28.318c0.001,15.641,12.678,28.317,28.318,28.318   c15.64-0.001,28.316-12.677,28.317-28.318C-210.061-72.253-222.737-84.929-238.377-84.93z M-238.377-32.645   c-13.237-0.024-23.944-10.731-23.968-23.967c0.024-13.236,10.731-23.943,23.968-23.967c13.236,0.024,23.943,10.731,23.967,23.967   C-214.433-43.376-225.141-32.669-238.377-32.645z"/><path d="M-226.948-58.787h-22.858c-1.201,0-2.175,0.974-2.175,2.175s0.974,2.175,2.175,2.175h22.858   c1.201,0,2.175-0.974,2.175-2.175S-225.747-58.787-226.948-58.787z"/></g><g><path d="M-243.404-68.46c-0.672-0.43-1.516-0.459-2.217-0.076c-0.7,0.383-1.131,1.11-1.131,1.908v20.634   c0,0.798,0.431,1.525,1.131,1.908c0.7,0.383,1.545,0.354,2.217-0.076l16.119-10.318c0.625-0.4,1.003-1.09,1.003-1.832   s-0.378-1.432-1.003-1.832L-243.404-68.46z M-242.401-49.968v-12.684l9.909,6.341L-242.401-49.968z"/><path d="M-238.377-84.93c-15.641,0.001-28.317,12.677-28.318,28.318c0.001,15.641,12.678,28.317,28.318,28.318   c15.64-0.001,28.316-12.677,28.318-28.318C-210.061-72.253-222.737-84.929-238.377-84.93z M-238.377-32.645   c-13.237-0.024-23.944-10.731-23.968-23.967c0.024-13.236,10.731-23.943,23.968-23.967c13.236,0.024,23.943,10.731,23.967,23.967   C-214.434-43.376-225.141-32.669-238.377-32.645z"/></g><g><path d="M-242.002-68.803h-8.218l-1.538,0.637l-0.637,1.538v20.634l0.637,1.538l1.538,0.637h8.218l1.538-0.637l0.637-1.538v-20.634   l-0.637-1.538L-242.002-68.803z M-248.045-64.452h3.867v16.284h-3.867V-64.452z"/><path d="M-226.535-68.803h-8.217l-1.538,0.637l-0.637,1.538v20.634l0.637,1.538l1.538,0.637h8.217l1.538-0.637l0.637-1.538v-20.634   l-0.637-1.538L-226.535-68.803z M-232.577-64.452h3.867v16.284h-3.867V-64.452z"/><path d="M-238.377-84.93c-15.641,0.001-28.317,12.677-28.318,28.318c0.001,15.641,12.678,28.317,28.318,28.318   c15.64-0.001,28.316-12.677,28.318-28.318C-210.061-72.253-222.737-84.929-238.377-84.93z M-238.377-32.645   c-13.237-0.024-23.944-10.731-23.968-23.967c0.024-13.236,10.731-23.943,23.968-23.967c13.236,0.024,23.943,10.731,23.967,23.967   C-214.434-43.376-225.141-32.669-238.377-32.645z"/></g><path d="M-238.377-84.798c-13.527,0.002-24.489,10.964-24.49,24.49l0.637,1.538l1.538,0.637c2.472,0,11.011,0,20.14,0v20.865  c0.001,4.884,3.958,8.84,8.842,8.842c4.884-0.002,8.84-3.958,8.842-8.842c0-1.201-0.974-2.175-2.175-2.175  c-1.201,0-2.175,0.974-2.175,2.175c-0.004,2.479-2.012,4.487-4.491,4.491c-2.479-0.004-4.487-2.012-4.491-4.491v-20.865  c8.255,0,16.292,0,20.14,0l1.538-0.637l0.637-1.538C-213.889-73.835-224.851-84.797-238.377-84.798z M-238.377-80.448  c10.377,0.019,18.805,7.883,19.917,17.965c-9.736,0-31.729,0-39.835,0C-257.182-72.565-248.754-80.429-238.377-80.448z"/><g><path d="M-224.913-72.971l-19.556,9.228l-1.039,1.039l-9.229,19.556c-0.392,0.832-0.221,1.816,0.429,2.466   c0.65,0.651,1.635,0.821,2.467,0.429l19.556-9.229l1.039-1.039l9.229-19.556c0.392-0.832,0.221-1.816-0.429-2.467   C-223.097-73.193-224.082-73.364-224.913-72.971z M-234.848-53.082l-13.367,6.308l6.308-13.367l13.367-6.308L-234.848-53.082z"/><circle cx="-238.378" cy="-56.612" r="2.543"/><path d="M-238.378-84.93c-15.641,0.001-28.317,12.678-28.318,28.318c0.001,15.641,12.677,28.317,28.318,28.318   c15.641-0.002,28.317-12.678,28.318-28.318C-210.061-72.253-222.737-84.929-238.378-84.93z M-238.378-32.644   c-13.236-0.024-23.943-10.732-23.967-23.968c0.024-13.236,10.731-23.943,23.967-23.967c13.236,0.024,23.944,10.731,23.968,23.967   C-214.434-43.376-225.141-32.668-238.378-32.644z"/></g><path d="M-238.377-84.93c-15.641,0.001-28.317,12.677-28.318,28.318c0.001,15.641,12.677,28.317,28.318,28.318  c15.641-0.001,28.317-12.677,28.318-28.318C-210.061-72.253-222.737-84.929-238.377-84.93z M-243.378-45.596  c-0.409-2.715-0.675-5.657-0.76-8.841h11.555c-0.083,3.162-0.331,6.141-0.734,8.843c-1.65-0.097-3.319-0.181-5.061-0.182  C-240.099-45.775-241.746-45.691-243.378-45.596z M-244.172-58.787c0.083-3.162,0.331-6.141,0.734-8.843  c1.65,0.097,3.319,0.181,5.061,0.182c1.721-0.002,3.369-0.086,5.001-0.181c0.409,2.715,0.674,5.657,0.759,8.841H-244.172z   M-230.615-75.737c-0.454-1.467-0.979-2.746-1.553-3.919c3.996,1.081,7.598,3.096,10.477,5.898  c-2.298,0.624-5.036,1.105-8.056,1.444C-230.012-73.51-230.291-74.68-230.615-75.737z M-237.009-79.422  c1.018,1.373,2.085,4.062,2.886,7.472c-1.397,0.073-2.789,0.154-4.254,0.152c-1.46,0.002-2.848-0.079-4.24-0.152  c0.204-0.865,0.402-1.75,0.636-2.509c0.676-2.216,1.488-3.945,2.235-4.963c0.776-1.061,1.295-1.182,1.369-1.158  C-238.303-80.604-237.784-80.483-237.009-79.422z M-246.993-72.312c-3.026-0.34-5.771-0.821-8.073-1.446  c2.919-2.841,6.577-4.881,10.639-5.948C-245.46-77.655-246.336-75.249-246.993-72.312z M-247.712-68.018  c-0.42,2.87-0.693,5.937-0.777,9.23h-13.634c0.39-4.191,1.75-8.092,4.012-11.377C-255.183-69.197-251.668-68.471-247.712-68.018z   M-248.522-54.437c0.083,3.273,0.327,6.381,0.741,9.238c-3.928,0.454-7.419,1.177-10.33,2.139  c-2.262-3.285-3.622-7.185-4.012-11.377H-248.522z M-247.009-40.911c0.265,1.197,0.545,2.367,0.869,3.424  c0.454,1.467,0.979,2.745,1.552,3.919c-3.996-1.081-7.598-3.095-10.477-5.898C-252.767-40.091-250.029-40.571-247.009-40.911z   M-239.746-33.802c-1.018-1.373-2.085-4.062-2.885-7.472c1.397-0.073,2.789-0.154,4.254-0.152c1.46-0.002,2.847,0.079,4.24,0.151  c-0.204,0.865-0.402,1.751-0.636,2.509c-0.676,2.216-1.488,3.945-2.235,4.963c-0.775,1.061-1.295,1.182-1.369,1.158  C-238.452-32.62-238.971-32.741-239.746-33.802z M-229.762-40.912c3.026,0.34,5.77,0.821,8.072,1.446  c-2.919,2.841-6.577,4.881-10.638,5.948C-231.294-35.569-230.419-37.975-229.762-40.912z M-229.043-45.207  c0.42-2.87,0.693-5.937,0.776-9.23h13.634c-0.39,4.191-1.751,8.091-4.012,11.376C-221.572-44.029-225.087-44.754-229.043-45.207z   M-228.233-58.787c-0.083-3.273-0.327-6.381-0.742-9.238c3.928-0.454,7.419-1.176,10.33-2.139c2.262,3.285,3.623,7.185,4.012,11.377  H-228.233z"/><g><path d="M-238.377-84.93c-15.641,0.002-28.317,12.678-28.318,28.318c0.001,15.64,12.677,28.317,28.318,28.318   c15.641-0.001,28.317-12.678,28.318-28.318C-210.061-72.252-222.737-84.928-238.377-84.93z M-238.377-32.644   c-13.236-0.024-23.944-10.731-23.968-23.967c0.024-13.236,10.732-23.944,23.968-23.968c13.236,0.024,23.944,10.732,23.968,23.968   C-214.433-43.376-225.141-32.668-238.377-32.644z"/><circle cx="-238.377" cy="-56.612" r="13.042"/></g><g><path d="M-227.11-64.75v-9.114c-0.008-6.212-5.056-11.259-11.267-11.267c-6.211,0.008-11.259,5.056-11.267,11.267v9.114   c-5.968,0.859-10.584,5.949-10.591,12.149v12.183c0.008,6.794,5.532,12.318,12.326,12.326h19.064   c6.794-0.008,12.318-5.532,12.326-12.326v-12.183C-216.526-58.801-221.142-63.892-227.11-64.75z M-238.377-80.781   c3.79,0.007,6.91,3.127,6.917,6.917v8.936h-13.834v-8.936C-245.288-77.654-242.167-80.774-238.377-80.781z M-220.869-40.419   c-0.008,4.372-3.604,7.968-7.976,7.976h-19.064c-4.372-0.008-7.968-3.604-7.976-7.976v-12.183c0.008-4.372,3.604-7.968,7.976-7.976   h19.064c4.372,0.008,7.968,3.604,7.976,7.976V-40.419z"/><path d="M-238.889-51.658c-2.029,0-3.675,1.645-3.675,3.675c0,2.364,1.414,2.493,1.557,3.341c0.514,3.046,0.53,3.992,2.117,3.992   c1.584,0,1.598-0.925,2.114-3.971c0.145-0.857,1.561-1.165,1.561-3.362C-235.215-50.012-236.86-51.658-238.889-51.658z"/></g><g><path d="M-223.99-85.131c-6.211,0.008-11.259,5.056-11.267,11.267v8.936h-16.449c-6.794,0.008-12.318,5.532-12.326,12.326v12.183   c0.008,6.794,5.532,12.318,12.326,12.326h19.065c6.794-0.008,12.317-5.532,12.326-12.326v-12.183   c-0.008-6.2-4.624-11.291-10.591-12.149v-9.113c0.007-3.79,3.127-6.91,6.917-6.917c3.79,0.007,6.91,3.127,6.917,6.917v11.112   c0,1.201,0.974,2.175,2.175,2.175c1.201,0,2.175-0.974,2.175-2.175v-11.112C-212.731-80.075-217.778-85.123-223.99-85.131z    M-224.666-52.601v12.183c-0.008,4.372-3.604,7.968-7.975,7.976h-19.065c-4.372-0.008-7.968-3.604-7.976-7.976v-12.183   c0.008-4.372,3.604-7.968,7.976-7.976h19.065C-228.27-60.569-224.674-56.974-224.666-52.601z"/><path d="M-242.686-51.658c-2.029,0-3.674,1.645-3.674,3.675c0,2.364,1.414,2.493,1.557,3.341c0.513,3.046,0.529,3.992,2.117,3.992   c1.584,0,1.598-0.925,2.114-3.971c0.146-0.857,1.561-1.165,1.561-3.362C-239.012-50.012-240.657-51.658-242.686-51.658z"/></g><g><path d="M-209.414-61.023c-5.128-4.269-15.92-11.972-28.963-12.014c-13.043,0.042-23.835,7.745-28.963,12.013   c-1.365,1.142-2.06,2.794-2.055,4.411c-0.004,1.617,0.691,3.269,2.056,4.412c5.128,4.268,15.919,11.971,28.962,12.013   c13.043-0.042,23.835-7.745,28.963-12.013c1.365-1.142,2.059-2.795,2.055-4.411C-207.355-58.229-208.05-59.881-209.414-61.023z    M-238.377-47.683c-5.205-0.009-9.416-4.22-9.425-9.425c0.009-5.204,4.22-9.415,9.425-9.425c5.205,0.01,9.416,4.221,9.425,9.425   C-228.961-51.904-233.172-47.693-238.377-47.683z M-265.045-56.612l0.501-1.078c3.369-2.848,9.502-7.174,16.783-9.454   c-2.687,2.514-4.391,6.064-4.392,10.035c0.001,4.888,2.562,9.155,6.399,11.6c-8.163-2.039-15.115-6.918-18.791-10.025   L-265.045-56.612z M-231.001-45.509c3.837-2.445,6.399-6.712,6.399-11.6c-0.001-3.971-1.705-7.521-4.392-10.035   c7.281,2.279,13.415,6.606,16.783,9.453l0.501,1.078l-0.501,1.078C-215.886-52.427-222.838-47.548-231.001-45.509z"/><circle cx="-238.377" cy="-57.109" r="6.013"/></g><g><path d="M-209.415-61.023c-5.128-4.269-15.919-11.972-28.962-12.014c-13.043,0.042-23.835,7.745-28.963,12.013   c-1.365,1.142-2.06,2.794-2.055,4.411c-0.004,1.617,0.691,3.269,2.056,4.412c5.128,4.268,15.919,11.971,28.962,12.013   c13.043-0.042,23.835-7.745,28.962-12.013c1.365-1.142,2.06-2.795,2.055-4.411C-207.355-58.229-208.05-59.881-209.415-61.023z    M-238.377-44.538c-11.238,0.043-21.422-6.985-26.167-10.996l-0.501-1.078l0.501-1.078c4.746-4.012,14.93-11.039,26.167-10.997   c11.237-0.042,21.421,6.985,26.167,10.996l0.5,1.078l-0.5,1.078C-216.956-51.523-227.14-44.495-238.377-44.538z"/><path d="M-238.377-66.718c-5.308,0.001-9.608,4.302-9.609,9.609c0.001,5.308,4.301,9.608,9.609,9.609   c5.308-0.001,9.608-4.301,9.609-9.609C-228.769-62.416-233.069-66.717-238.377-66.718z M-238.377-51.85   c-2.904-0.005-5.254-2.355-5.259-5.259c0.005-2.904,2.356-5.254,5.259-5.259c2.904,0.005,5.254,2.355,5.259,5.259   C-233.123-54.205-235.473-51.855-238.377-51.85z"/></g><path d="M-238.378-85.021c-15.691,0.001-28.407,12.718-28.408,28.409c0.001,15.69,12.718,28.407,28.408,28.409  c15.691-0.002,28.408-12.719,28.409-28.409C-209.97-72.303-222.687-85.02-238.378-85.021z M-236.203-32.776v-10.253  c0-1.201-0.974-2.175-2.175-2.175c-1.201,0-2.175,0.974-2.175,2.175v10.253c-11.487-1.063-20.54-10.089-21.651-21.562h10.342  c1.201,0,2.175-0.974,2.175-2.175c0-1.201-0.974-2.175-2.175-2.175h-10.362c1.023-11.567,10.118-20.691,21.671-21.76v10.451  c0,1.201,0.974,2.175,2.175,2.175c1.201,0,2.175-0.974,2.175-2.175v-10.451c11.553,1.069,20.648,10.193,21.671,21.76h-10.362  c-1.201,0-2.175,0.974-2.175,2.175c0,1.201,0.974,2.175,2.175,2.175h10.342C-215.662-42.865-224.716-33.839-236.203-32.776z"/><path d="M-212.619-33.93l-14.696-14.695c2.953-3.634,4.797-8.206,4.798-13.254c-0.001-11.67-9.459-21.127-21.128-21.129  c-11.67,0.002-21.127,9.459-21.128,21.129c0.001,11.67,9.459,21.127,21.128,21.128c5.049,0,9.621-1.844,13.254-4.798l14.695,14.696  c0.849,0.849,2.227,0.849,3.076,0C-211.769-31.703-211.769-33.08-212.619-33.93z M-243.645-45.102  c-9.265-0.017-16.761-7.513-16.778-16.778c0.017-9.265,7.513-16.761,16.778-16.778c9.266,0.017,16.761,7.513,16.778,16.778  C-226.884-52.614-234.379-45.119-243.645-45.102z"/><path d="M-219.13-66.063c-0.336-0.813-1.13-1.342-2.009-1.342h-34.475c-0.88,0-1.673,0.53-2.01,1.342  c-0.336,0.813-0.15,1.749,0.472,2.371l17.237,17.237l1.538,0.637l1.538-0.637l17.238-17.237  C-218.98-64.315-218.793-65.25-219.13-66.063z M-238.377-51.07l-11.986-11.986h23.972L-238.377-51.07z"/><path d="M-218.297-79.813h-40.161c-6.809,0.001-12.325,5.518-12.326,12.326v21.749c0.001,6.808,5.518,12.325,12.326,12.326h40.161  c6.808-0.001,12.325-5.518,12.326-12.326v-21.749C-205.972-74.295-211.488-79.811-218.297-79.813z M-210.321-45.737  c-0.003,1.794-0.706,3.366-1.706,4.698l-18.738-15.274l18.736-15.874c1.002,1.332,1.705,2.906,1.708,4.701V-45.737z   M-218.297-75.462c0.974,0.002,1.883,0.237,2.745,0.557l-22.932,19.429l-22.823-19.408c0.889-0.343,1.838-0.576,2.848-0.578  H-218.297z M-264.743-41.062c-0.99-1.328-1.688-2.891-1.691-4.675v-21.749c0.003-1.766,0.691-3.313,1.663-4.634l18.598,15.816  L-264.743-41.062z M-258.458-37.762c-0.981-0.002-1.897-0.237-2.765-0.561l18.418-15.116l2.91,2.475  c0.81,0.689,2.004,0.69,2.815,0.002l2.938-2.49l18.57,15.137c-0.857,0.316-1.759,0.552-2.726,0.553H-258.458z"/><path d="M-223.224-84.817h-30.307c-7.178,0-13.051,5.873-13.051,13.051v30.307c0,7.178,5.873,13.051,13.051,13.051h30.307  c7.178,0,13.051-5.873,13.051-13.051v-30.307C-210.173-78.944-216.046-84.817-223.224-84.817z M-214.523-41.459  c0,4.798-3.903,8.701-8.701,8.701h-30.307c-4.797,0-8.701-3.903-8.701-8.701v-30.307c0-4.798,3.903-8.701,8.701-8.701h30.307  c4.797,0,8.701,3.903,8.701,8.701V-41.459z"/><path d="M-213.066-46.461v8.635c-0.008,6.794-5.532,12.318-12.326,12.326h-31.772c-6.794-0.008-12.318-5.532-12.326-12.326v-31.772  c0.008-6.794,5.532-12.318,12.326-12.326l8.635,0c1.201,0,2.175,0.974,2.175,2.175c0,1.201-0.974,2.175-2.175,2.175h-8.635  c-4.372,0.008-7.968,3.604-7.976,7.976v31.772c0.008,4.372,3.604,7.968,7.976,7.975h31.772c4.372-0.008,7.968-3.604,7.976-7.975  v-8.635h0c0-1.201,0.974-2.175,2.175-2.175C-214.04-48.636-213.066-47.662-213.066-46.461z M-207.265-85.549l-0.637-1.538  l-1.538-0.637h-17.492c-1.202,0-2.175,0.974-2.175,2.175s0.974,2.175,2.175,2.175h12.24l-21.521,21.522  c-0.849,0.849-0.849,2.227,0,3.076c0.849,0.849,2.227,0.849,3.076,0l21.521-21.521l0,12.241c0,1.201,0.974,2.175,2.175,2.175  s2.175-0.974,2.175-2.175L-207.265-85.549z"/><g><path d="M-210.983-82.296l-0.637-1.538l-1.538-0.637h-13.955c-1.202,0-2.175,0.974-2.175,2.175s0.974,2.175,2.175,2.175h8.704   l-16.419,16.419c-0.849,0.849-0.849,2.227,0,3.076c0.849,0.849,2.227,0.849,3.076,0l16.419-16.419v8.704   c0,1.201,0.974,2.175,2.175,2.175c1.201,0,2.175-0.974,2.175-2.175L-210.983-82.296z"/><path d="M-217.481-46.711l-6.819-5.799l-0.034-0.028c-1.574-1.284-3.439-2.075-5.397-2.078c-1.707-0.011-3.442,0.653-4.781,1.917   c-0.391,0.364-0.634,0.817-0.928,1.242c-1.154-1.014-2.609-2.358-3.998-3.847c-1.457-1.563-2.846-3.285-3.858-4.606   c-0.073-0.095-0.104-0.141-0.173-0.232c0.672-0.469,1.074-0.848,1.186-0.95l0.001,0.001c0.002-0.002,0.003-0.005,0.005-0.007   c0.007-0.007,0.039-0.036,0.043-0.039l-0.009-0.009c1.463-1.376,2.204-3.252,2.19-5.068c-0.003-1.804-0.645-3.547-1.729-5.038   l-0.007-0.01l-5.309-7.207l-0.008,0.005c-1.275-1.789-3.324-2.601-5.197-2.579c-1.883,0.008-3.707,0.687-5.197,1.887l-5.109,4.142   l-0.04,0.033c-1.797,1.528-3.116,3.688-3.126,6.2c-0.004,1.308,0.386,2.657,1.153,3.87c8.485,13.534,19.48,25.325,32.392,34.735   c1.296,0.955,2.803,1.428,4.249,1.422c2.338-0.01,4.403-1.123,5.937-2.692l0.032-0.034l4.454-4.772l0.051-0.056   c1.329-1.54,2.207-3.476,2.22-5.577c0.02-1.696-0.684-3.539-2.18-4.814L-217.481-46.711z M-225.16-34.481   c-0.889,0.916-1.95,1.388-2.819,1.378l-1.684-0.586c-12.466-9.084-23.08-20.467-31.271-33.533l-0.487-1.558   c-0.01-0.89,0.507-1.958,1.593-2.885l5.072-4.113c0.711-0.587,1.68-0.923,2.456-0.915c0.807,0.022,1.292,0.249,1.681,0.774   l0.021,0.029l5.302,7.197c0.614,0.84,0.898,1.737,0.895,2.477c-0.014,0.764-0.238,1.358-0.846,1.943l-0.048,0.047l-0.007,0.006   c-0.126,0.131-1.091,0.943-2.096,1.258c-0.656,0.215-1.165,0.721-1.384,1.375c-0.219,0.655-0.118,1.365,0.276,1.932   c0.034,0.045,2.694,3.885,5.889,7.315c3.202,3.43,6.598,6.075,6.648,6.116c0.618,0.482,1.452,0.595,2.176,0.293   c0.724-0.302,1.231-0.973,1.323-1.752c0.083-0.69,0.39-1.335,0.928-1.837c0.605-0.549,1.154-0.738,1.814-0.748   c0.746-0.004,1.689,0.319,2.643,1.096l6.772,5.759l0.68,1.527c0.014,0.786-0.407,1.876-1.148,2.714L-225.16-34.481z"/></g><g><path d="M-211.62-83.834c-0.849-0.849-2.227-0.849-3.076,0l-16.419,16.419v-8.704c0-1.201-0.974-2.175-2.175-2.175   c-1.201,0-2.175,0.974-2.175,2.175v13.955l0.637,1.538l1.538,0.637h13.955c1.201,0,2.175-0.974,2.175-2.175   c0-1.201-0.974-2.175-2.175-2.175h-8.704l16.419-16.419C-210.77-81.608-210.77-82.985-211.62-83.834z"/><path d="M-217.481-46.711l-6.819-5.799l-0.034-0.028c-1.574-1.283-3.439-2.074-5.396-2.078c-1.707-0.011-3.442,0.653-4.781,1.917   c-0.391,0.364-0.633,0.817-0.927,1.242c-1.154-1.014-2.61-2.358-3.998-3.847c-1.458-1.563-2.846-3.285-3.858-4.606   c-0.073-0.095-0.104-0.141-0.173-0.232c0.671-0.469,1.074-0.848,1.186-0.95l0.001,0.001c0.002-0.002,0.003-0.005,0.005-0.007   c0.007-0.007,0.039-0.036,0.043-0.039l-0.009-0.009c1.463-1.376,2.204-3.252,2.19-5.068c-0.003-1.804-0.645-3.547-1.729-5.038   l-0.007-0.01l-5.309-7.207l-0.008,0.005c-1.275-1.789-3.324-2.601-5.197-2.579c-1.883,0.008-3.707,0.687-5.197,1.886l-5.109,4.143   l-0.04,0.033c-1.797,1.528-3.116,3.688-3.126,6.2c-0.004,1.309,0.386,2.658,1.153,3.871c8.484,13.534,19.48,25.325,32.391,34.735   c1.296,0.955,2.803,1.428,4.249,1.422c2.338-0.01,4.403-1.123,5.937-2.692l0.032-0.034l4.454-4.771l0.051-0.056   c1.329-1.54,2.207-3.476,2.22-5.577c0.02-1.696-0.684-3.539-2.18-4.814L-217.481-46.711z M-225.159-34.481   c-0.889,0.916-1.95,1.388-2.82,1.378l-1.684-0.586c-12.465-9.084-23.079-20.467-31.271-33.533l-0.487-1.558   c-0.009-0.89,0.506-1.957,1.593-2.884l5.072-4.113c0.711-0.587,1.68-0.923,2.456-0.915c0.807,0.022,1.292,0.249,1.681,0.774   l0.021,0.029l5.302,7.197c0.613,0.84,0.897,1.737,0.894,2.477c-0.014,0.765-0.238,1.359-0.846,1.943l-0.048,0.047l-0.007,0.006   c-0.126,0.131-1.09,0.943-2.095,1.258c-0.656,0.215-1.165,0.721-1.384,1.375c-0.219,0.655-0.118,1.365,0.276,1.932   c0.034,0.045,2.694,3.886,5.889,7.316c3.202,3.43,6.598,6.075,6.648,6.116c0.618,0.482,1.452,0.595,2.175,0.293   c0.724-0.302,1.231-0.973,1.323-1.752c0.084-0.69,0.39-1.335,0.928-1.837c0.605-0.549,1.154-0.738,1.814-0.748   c0.746-0.004,1.69,0.319,2.644,1.097l6.772,5.759l0.68,1.527c0.014,0.785-0.407,1.876-1.148,2.714L-225.159-34.481z"/></g><path d="M-211.212-73.619c0.002-2.594-0.99-5.212-2.968-7.19c-1.978-1.979-4.595-2.971-7.19-2.969  c-2.595-0.002-5.212,0.99-7.19,2.969l-8.334,8.334c-1.979,1.978-2.971,4.595-2.969,7.19c-0.002,1.881,0.703,3.686,1.744,5.339  l-3.589,3.589c-1.64-1.036-3.434-1.741-5.31-1.74c-2.596-0.003-5.23,0.976-7.222,2.969l-8.334,8.334  c-1.979,1.978-2.971,4.595-2.969,7.19c-0.002,2.594,0.99,5.212,2.969,7.19c1.978,1.979,4.595,2.971,7.19,2.969  c2.594,0.002,5.211-0.99,7.189-2.968l8.335-8.335l-1.538-1.538l1.538,1.538c1.978-1.978,2.97-4.595,2.968-7.189  c0.002-1.881-0.703-3.686-1.743-5.339l3.591-3.591c1.652,1.04,3.458,1.745,5.339,1.743c2.594,0.002,5.212-0.99,7.19-2.969  l8.334-8.334l-1.538-1.538l1.538,1.538C-212.201-68.407-211.209-71.025-211.212-73.619z M-241.242-47.939  c-0.002,1.503-0.565,2.983-1.694,4.114l0,0l-8.334,8.335c-1.131,1.129-2.611,1.692-4.114,1.694  c-1.504-0.002-2.984-0.565-4.114-1.694c-1.13-1.131-1.693-2.611-1.695-4.114c0.002-1.503,0.564-2.983,1.694-4.113l8.334-8.335  c1.133-1.133,2.622-1.692,4.145-1.695c0.765,0.001,1.522,0.165,2.235,0.466l-4.204,4.204c-0.849,0.849-0.849,2.227,0,3.076  c0.849,0.849,2.227,0.849,3.076,0l4.201-4.201C-241.408-49.482-241.243-48.717-241.242-47.939z M-217.256-69.506L-217.256-69.506  l-8.334,8.334c-1.13,1.13-2.611,1.692-4.114,1.694c-0.778-0.001-1.543-0.166-2.263-0.468l2.804-2.804  c0.849-0.85,0.849-2.227,0-3.076c-0.849-0.849-2.227-0.849-3.076,0l-2.804,2.804c-0.302-0.72-0.467-1.486-0.469-2.263  c0.002-1.504,0.564-2.983,1.694-4.114l8.334-8.335c1.131-1.13,2.611-1.692,4.114-1.694c1.503,0.002,2.983,0.565,4.114,1.694  c1.13,1.131,1.692,2.611,1.694,4.114C-215.564-72.117-216.127-70.637-217.256-69.506z"/><g><path d="M-241.593-41.085l-5.673,5.673c-1.692,1.691-3.912,2.535-6.155,2.536c-2.243-0.002-4.464-0.845-6.155-2.536   c-1.691-1.692-2.534-3.912-2.537-6.155c0.002-2.243,0.845-4.464,2.537-6.155l11.346-11.346c1.692-1.691,3.912-2.534,6.155-2.537   c2.243,0.002,4.463,0.845,6.155,2.537c0.849,0.849,2.227,0.849,3.076,0c0.849-0.849,0.849-2.227,0-3.076   c-2.54-2.541-5.897-3.813-9.232-3.811c-3.335-0.002-6.692,1.271-9.232,3.81l-11.345,11.346c-2.541,2.539-3.813,5.897-3.811,9.232   c-0.002,3.335,1.27,6.692,3.811,9.232c2.539,2.54,5.897,3.813,9.231,3.81c3.335,0.002,6.692-1.27,9.232-3.81l5.673-5.673   c0.849-0.849,0.849-2.227,0-3.076C-239.367-41.934-240.744-41.934-241.593-41.085z"/><path d="M-214.101-80.888c-2.54-2.54-5.897-3.813-9.232-3.811c-3.335-0.002-6.692,1.271-9.231,3.811l-5.673,5.673   c-0.849,0.849-0.849,2.227,0,3.076c0.849,0.849,2.227,0.849,3.076,0v0l5.673-5.673c1.692-1.691,3.912-2.535,6.155-2.537   c2.243,0.002,4.463,0.845,6.155,2.537l0,0c1.691,1.692,2.534,3.912,2.536,6.155c-0.002,2.243-0.845,4.463-2.537,6.156   l-11.345,11.345c-1.692,1.691-3.912,2.534-6.156,2.536c-2.243-0.002-4.464-0.845-6.155-2.536c-0.849-0.85-2.227-0.85-3.076,0   c-0.849,0.849-0.849,2.227,0,3.076c2.538,2.54,5.896,3.813,9.231,3.81c3.334,0.002,6.692-1.27,9.232-3.81l11.346-11.346   c2.54-2.54,3.813-5.897,3.81-9.232C-210.289-74.991-211.561-78.348-214.101-80.888z"/></g><path d="M-224.63-58.788h-11.572v-11.572c0-1.201-0.974-2.175-2.175-2.175s-2.175,0.974-2.175,2.175v11.572h-11.572  c-1.201,0-2.175,0.974-2.175,2.175s0.974,2.175,2.175,2.175h11.572v11.572c0,1.201,0.974,2.175,2.175,2.175s2.175-0.974,2.175-2.175  v-11.572h11.572c1.201,0,2.175-0.974,2.175-2.175S-223.429-58.788-224.63-58.788z"/><path d="M-212.619-33.93l-14.696-14.696c2.953-3.634,4.797-8.205,4.798-13.254c-0.001-11.67-9.459-21.127-21.128-21.129  c-11.67,0.002-21.127,9.459-21.128,21.129c0.001,11.67,9.459,21.127,21.128,21.128c5.048,0,9.62-1.844,13.254-4.798l14.696,14.695  c0.849,0.85,2.227,0.85,3.076,0C-211.769-31.703-211.769-33.08-212.619-33.93z M-243.644-45.102  c-9.265-0.017-16.761-7.513-16.778-16.778c0.017-9.265,7.513-16.761,16.778-16.778c9.265,0.017,16.761,7.513,16.778,16.778  C-226.884-52.614-234.379-45.119-243.644-45.102z M-232.809-61.879c0,1.201-0.974,2.175-2.175,2.175h-6.486v6.486  c0,1.201-0.974,2.175-2.175,2.175c-1.201,0-2.175-0.974-2.175-2.175v-6.486h-6.486c-1.201,0-2.175-0.974-2.175-2.175  c0-1.201,0.974-2.175,2.175-2.175h6.486v-6.486c0-1.201,0.974-2.175,2.175-2.175c1.201,0,2.175,0.974,2.175,2.175v6.486h6.486  C-233.783-64.055-232.809-63.081-232.809-61.879z"/><g><path d="M-212.619-33.93l-14.696-14.696c2.953-3.634,4.797-8.205,4.798-13.254c-0.001-11.67-9.459-21.127-21.128-21.129   c-11.67,0.002-21.127,9.459-21.128,21.129c0.001,11.67,9.459,21.127,21.128,21.128c5.049,0,9.621-1.844,13.254-4.798l14.695,14.695   c0.849,0.85,2.227,0.85,3.076,0C-211.769-31.703-211.769-33.08-212.619-33.93z M-243.645-45.102   c-9.265-0.017-16.761-7.513-16.778-16.778c0.017-9.265,7.513-16.761,16.778-16.778c9.266,0.017,16.761,7.513,16.778,16.778   C-226.884-52.614-234.379-45.119-243.645-45.102z"/><path d="M-234.984-64.055h-17.322c-1.201,0-2.175,0.974-2.175,2.175c0,1.201,0.974,2.175,2.175,2.175h17.322   c1.201,0,2.175-0.974,2.175-2.175C-232.809-63.081-233.783-64.055-234.984-64.055z"/></g><path d="M-235.301-56.612l12.99-12.99c0.849-0.849,0.849-2.227,0-3.076c-0.849-0.849-2.227-0.849-3.076,0l-12.99,12.99l-12.99-12.99  c-0.849-0.849-2.227-0.849-3.076,0c-0.849,0.849-0.849,2.227,0,3.076l12.99,12.99l-12.99,12.99c-0.849,0.85-0.849,2.227,0,3.076  c0.849,0.849,2.227,0.849,3.076,0l12.99-12.99l12.99,12.99c0.849,0.849,2.227,0.849,3.076,0c0.849-0.849,0.849-2.227,0-3.076  L-235.301-56.612z"/><g><path d="M-217.783-46.409l-6.819-5.799l-0.034-0.028c-1.574-1.284-3.439-2.075-5.397-2.078c-1.707-0.011-3.442,0.653-4.781,1.917   c-0.391,0.364-0.634,0.817-0.928,1.242c-1.154-1.014-2.609-2.358-3.998-3.847c-1.457-1.563-2.846-3.285-3.858-4.606   c-0.073-0.095-0.104-0.141-0.173-0.232c0.672-0.469,1.074-0.848,1.186-0.95l0.001,0.001c0.002-0.002,0.003-0.005,0.005-0.007   c0.007-0.007,0.039-0.036,0.043-0.039l-0.009-0.009c1.463-1.376,2.204-3.252,2.19-5.068c-0.003-1.804-0.645-3.547-1.729-5.038   l-0.007-0.01l-5.309-7.207l-0.008,0.005c-1.275-1.789-3.324-2.601-5.197-2.579c-1.883,0.008-3.707,0.687-5.197,1.886l-5.109,4.143   l-0.04,0.033c-1.797,1.528-3.116,3.688-3.126,6.2c-0.004,1.308,0.386,2.657,1.153,3.87c8.485,13.534,19.48,25.325,32.391,34.735   c1.296,0.955,2.803,1.428,4.249,1.422c2.338-0.01,4.403-1.123,5.937-2.692l0.032-0.034l4.454-4.771l0.05-0.056   c1.329-1.54,2.207-3.476,2.221-5.577c0.02-1.696-0.684-3.539-2.18-4.814L-217.783-46.409z M-225.461-34.179   c-0.889,0.916-1.95,1.388-2.819,1.378l-1.684-0.586c-12.466-9.084-23.08-20.467-31.271-33.533l-0.487-1.558   c-0.01-0.89,0.507-1.958,1.593-2.885l5.072-4.113c0.711-0.587,1.68-0.923,2.456-0.915c0.807,0.022,1.292,0.249,1.681,0.774   l0.021,0.029l5.302,7.197c0.614,0.84,0.898,1.737,0.895,2.477c-0.014,0.764-0.238,1.358-0.846,1.943l-0.048,0.047l-0.007,0.006   c-0.126,0.131-1.091,0.943-2.096,1.258c-0.656,0.215-1.165,0.721-1.384,1.375c-0.219,0.655-0.118,1.365,0.276,1.932   c0.034,0.045,2.694,3.885,5.889,7.315c3.202,3.43,6.598,6.075,6.648,6.116c0.618,0.482,1.452,0.595,2.176,0.293   c0.724-0.302,1.231-0.973,1.323-1.752c0.083-0.69,0.39-1.335,0.927-1.837c0.605-0.549,1.155-0.738,1.814-0.748   c0.746-0.004,1.689,0.319,2.643,1.096l6.772,5.759l0.68,1.527c0.014,0.785-0.407,1.875-1.147,2.713L-225.461-34.179z"/><path d="M-218.846-73.532l7.528-7.528c0.849-0.849,0.849-2.227,0-3.076c-0.849-0.849-2.227-0.849-3.076,0l-7.528,7.528   l-7.528-7.528c-0.849-0.849-2.227-0.849-3.076,0c-0.849,0.849-0.849,2.227,0,3.076l7.528,7.528l-7.528,7.528   c-0.849,0.849-0.849,2.227,0,3.076c0.849,0.849,2.227,0.849,3.076,0l7.528-7.528l7.528,7.528c0.849,0.849,2.227,0.849,3.076,0   c0.849-0.85,0.849-2.227,0-3.076L-218.846-73.532z"/></g><g><path d="M-238.377-84.818c-15.579,0.002-28.205,12.628-28.207,28.207c0.001,15.579,12.628,28.205,28.207,28.206   c15.578-0.001,28.205-12.627,28.206-28.206C-210.172-72.191-222.799-84.817-238.377-84.818z M-238.377-32.756   c-13.174-0.024-23.832-10.682-23.856-23.856c0.024-13.174,10.682-23.832,23.856-23.856c13.174,0.024,23.832,10.682,23.856,23.856   C-214.545-43.437-225.203-32.78-238.377-32.756z"/><circle cx="-238.176" cy="-42.416" r="2.247"/><path d="M-238.176-75.154c-5.984,0.001-10.832,4.849-10.833,10.833c0,1.201,0.974,2.175,2.175,2.175   c1.201,0,2.175-0.974,2.175-2.175c0.007-3.579,2.903-6.476,6.482-6.482c3.58,0.007,6.476,2.903,6.482,6.482   c-0.007,3.58-2.903,6.476-6.482,6.482c-1.201,0-2.175,0.974-2.175,2.175v6.34c0,1.201,0.974,2.175,2.175,2.175   c1.201,0,2.175-0.974,2.175-2.175v-4.384c4.941-1.007,8.657-5.375,8.658-10.613C-227.344-70.305-232.192-75.153-238.176-75.154z"/></g><path d="M-223.223-84.817h-30.307c-7.178,0-13.051,5.873-13.051,13.051v30.307c0,7.178,5.874,13.051,13.051,13.051h30.307  c7.178,0,13.051-5.873,13.051-13.051v-30.307C-210.172-78.944-216.045-84.817-223.223-84.817z M-214.523-41.459  c0,4.798-3.903,8.701-8.701,8.701h-30.307c-4.798,0-8.701-3.903-8.701-8.701v-30.307c0-4.798,3.903-8.701,8.701-8.701h30.307  c4.798,0,8.701,3.903,8.701,8.701V-41.459z M-221.556-68.193c0.731,0.732,0.731,1.918,0,2.65l-22.336,22.336l-1.425,0.546  l-1.359-0.695l-8.657-10.734h0c-0.65-0.805-0.524-1.986,0.282-2.635s1.985-0.523,2.636,0.282l7.347,9.111l20.862-20.861  C-223.474-68.925-222.288-68.925-221.556-68.193z"/><path d="M-221.555-69.104c-0.732-0.732-1.919-0.732-2.65,0l-20.862,20.861l-7.347-9.111c-0.65-0.805-1.83-0.932-2.635-0.282  c-0.806,0.65-0.932,1.829-0.282,2.635h0l8.657,10.734l1.359,0.695l1.425-0.546l22.336-22.336  C-220.824-67.185-220.824-68.372-221.555-69.104z"/><g><path d="M-218.353-76.636c-5.524-5.526-12.784-8.297-20.024-8.294c-7.24-0.002-14.5,2.769-20.024,8.294   c-5.526,5.523-8.297,12.784-8.294,20.024c-0.003,7.24,2.769,14.5,8.294,20.024c5.523,5.525,12.783,8.296,20.024,8.294   c7.24,0.002,14.5-2.769,20.024-8.294c5.525-5.524,8.297-12.784,8.294-20.024C-210.057-63.852-212.828-71.112-218.353-76.636z    M-221.429-39.664c-4.686,4.684-10.807,7.018-16.948,7.02c-6.142-0.002-12.262-2.336-16.948-7.02   c-4.684-4.686-7.018-10.807-7.02-16.948c0.003-6.141,2.336-12.262,7.02-16.948c4.686-4.684,10.806-7.018,16.948-7.02   c6.141,0.003,12.262,2.336,16.948,7.02c4.684,4.686,7.017,10.806,7.02,16.948C-214.412-50.471-216.746-44.35-221.429-39.664z"/><path d="M-221.555-69.105c-0.732-0.732-1.919-0.732-2.65,0l-20.862,20.861l-7.347-9.111c-0.651-0.805-1.83-0.932-2.636-0.282   c-0.805,0.65-0.932,1.83-0.282,2.635h0l8.657,10.734l1.359,0.695l1.425-0.546l22.336-22.336   C-220.824-67.187-220.824-68.373-221.555-69.105z"/></g><path d="M-213.455-42.976c-2.9-4.809-7.574-8.775-13.21-11.216c3.241-3.084,5.281-7.422,5.282-12.251l-0.075-1.626  c-0.76-7.913-7.047-14.323-14.947-15.216l-1.926-0.107c-9.362,0.001-16.948,7.588-16.949,16.95c0,4.832,2.045,9.172,5.29,12.257  c-5.795,2.509-10.575,6.625-13.456,11.613c-0.758,1.311-1.117,2.744-1.115,4.128c0.01,4.534,3.698,8.585,8.687,8.612h35.072  c5.05-0.009,8.604-4.153,8.613-8.643C-212.19-39.988-212.597-41.553-213.455-42.976z M-220.804-34.183h-35.072  c-2.473-0.004-4.332-2.109-4.337-4.262c0.002-0.651,0.158-1.3,0.534-1.956c2.878-5.014,8.231-9.294,14.69-11.07  c0.848-0.234,1.473-0.959,1.58-1.832c0.107-0.873-0.325-1.728-1.092-2.159c-3.841-2.167-6.433-6.263-6.432-10.979  c0.013-6.958,5.642-12.587,12.599-12.6l1.447,0.081c5.799,0.625,10.566,5.483,11.095,11.296l0.057,1.223  c0,4.717-2.591,8.812-6.431,10.979c-0.767,0.432-1.199,1.286-1.092,2.159c0.107,0.873,0.732,1.598,1.58,1.832  c6.315,1.737,11.573,5.867,14.494,10.737c0.449,0.75,0.639,1.51,0.641,2.259C-216.563-36.219-218.286-34.187-220.804-34.183z"/><g><path d="M-203.678-66.522l-1.538-0.637c-4.372-0.008-7.968-3.604-7.976-7.976l-0.637-1.538l-1.538-0.637h-46.019l-1.538,0.637   l-0.637,1.538c-0.008,4.372-3.604,7.968-7.976,7.976l-1.538,0.637l-0.637,1.538v16.744l0.637,1.538l1.538,0.637   c4.372,0.008,7.968,3.604,7.976,7.976l0.637,1.538l1.538,0.637h46.019l1.538-0.637l0.637-1.538   c0.008-4.372,3.604-7.968,7.976-7.976l1.538-0.637l0.637-1.538v-16.744L-203.678-66.522z M-217.32-40.264h-42.114   c-0.911-5.047-4.882-9.018-9.929-9.929v-12.838c5.047-0.911,9.017-4.882,9.929-9.929h42.114c0.911,5.047,4.882,9.017,9.929,9.929   v12.838C-212.439-49.282-216.409-45.311-217.32-40.264z"/><path d="M-223.349-67.317h-30.057l-1.538,0.637l-0.637,1.538v16.565l0.637,1.538l1.538,0.637h30.057l1.538-0.637l0.637-1.538   v-16.565l-0.637-1.538L-223.349-67.317z M-251.231-62.966h25.706l0,12.215h-25.707V-62.966z"/></g><g><path d="M-204.733-63.016l0.131-0.039c0.926-0.273,1.56-1.121,1.56-2.086v-9.993l-0.637-1.538l-1.538-0.637h-66.321l-1.538,0.637   l-0.637,1.538v9.993c0,0.966,0.634,1.813,1.56,2.086l0.13,0.039c3.146,0.947,4.566,3.454,4.608,6.155   c-0.043,2.738-1.504,5.282-4.704,6.189c-0.944,0.261-1.595,1.117-1.595,2.096v10.488l0.637,1.538l1.538,0.637h66.321l1.538-0.637   l0.637-1.538v-10.488c0-0.979-0.651-1.835-1.595-2.096c-3.202-0.908-4.662-3.451-4.706-6.189   C-209.299-59.563-207.879-62.07-204.733-63.016z M-213.692-56.862c-0.038,3.876,2.222,7.775,6.3,9.636v6.962h-61.971l0-6.962   c4.078-1.862,6.337-5.76,6.299-9.636c0.037-3.868-2.211-7.769-6.299-9.635v-6.463h61.971v6.463   C-211.48-64.632-213.729-60.731-213.692-56.862z"/><path d="M-223.349-67.317h-30.057l-1.538,0.637l-0.637,1.538v16.565l0.637,1.538l1.538,0.637h30.057l1.538-0.637l0.637-1.538   v-16.565l-0.637-1.538L-223.349-67.317z M-251.231-62.966h25.706l0,12.215h-25.707V-62.966z"/></g><g><path d="M-238.137-66.818c3.998-0.001,7.237-3.24,7.238-7.238c-0.001-3.999-3.24-7.237-7.238-7.238   c-3.999,0.001-7.237,3.24-7.238,7.238C-245.374-70.058-242.136-66.82-238.137-66.818z M-238.137-76.944   c1.594,0.003,2.885,1.294,2.888,2.888c-0.003,1.594-1.294,2.885-2.888,2.888c-1.595-0.003-2.885-1.294-2.888-2.888   C-241.023-75.651-239.732-76.942-238.137-76.944z"/><path d="M-209.083-41.731l-6.218-20.713c-1.139-3.792-3.868-6.711-7.285-8.324c0.001-0.008,0.005-0.018,0.006-0.026l0.007-0.042   c0.126-0.801,0.19-1.622,0.19-2.456c-0.001-8.702-7.053-15.754-15.755-15.756c-8.702,0.001-15.754,7.053-15.756,15.756   c0,0.791,0.075,1.565,0.188,2.326c-3.637,1.555-6.558,4.561-7.748,8.522l-6.217,20.713c-0.396,1.315-0.584,2.642-0.584,3.94   c0.014,7.284,5.891,13.603,13.643,13.615h32.468c7.752-0.012,13.629-6.33,13.642-13.615   C-208.5-39.089-208.688-40.416-209.083-41.731z M-238.137-84.698c6.298,0.012,11.393,5.107,11.405,11.405l-0.136,1.762   c-0.481,2.741-1.979,7.069-4.405,11.054c-1.794,2.96-3.929,5.846-5.609,7.975c-0.484,0.614-0.809,0.996-1.198,1.469   c-0.336-0.441-0.711-0.939-1.118-1.487c-1.604-2.162-3.652-5.062-5.404-7.957c-2.769-4.513-4.63-9.459-4.782-10.9l-0.009-0.062   l-0.15-1.854C-249.531-79.591-244.436-84.686-238.137-84.698z M-222.143-28.527h-32.468c-5.28-0.009-9.291-4.332-9.293-9.264   c0-0.88,0.126-1.78,0.399-2.689l6.218-20.714c0.754-2.516,2.53-4.485,4.771-5.603c0.938,2.503,2.331,5.462,4.191,8.573   c3.719,6.139,8.466,11.978,8.498,12.02l1.64,0.804l1.675-0.73c0.044-0.054,5.091-5.721,8.958-12.091   c1.72-2.846,2.959-5.72,3.828-8.333c2.001,1.156,3.561,3.035,4.258,5.361l6.217,20.713c0.273,0.909,0.399,1.81,0.399,2.69   C-212.852-32.859-216.864-28.536-222.143-28.527z"/></g><g><path d="M-238.377-84.93c-15.641,0.002-28.317,12.678-28.318,28.318c0.001,15.64,12.677,28.317,28.318,28.318   c15.641-0.001,28.317-12.678,28.318-28.318C-210.061-72.252-222.737-84.928-238.377-84.93z M-238.377-32.644   c-13.236-0.024-23.944-10.731-23.968-23.967c0.024-13.237,10.732-23.944,23.968-23.968c13.236,0.024,23.944,10.731,23.968,23.968   C-214.433-43.376-225.141-32.668-238.377-32.644z"/><path d="M-237.095-55.274l-0.557-1.345v-16.529c0-1.201-0.974-2.175-2.175-2.175c-1.201,0-2.175,0.974-2.175,2.175h0v16.529   c0,1.658,0.659,3.249,1.832,4.421l7.332,7.333c0.849,0.849,2.227,0.849,3.076,0c0.849-0.849,0.849-2.227,0-3.076L-237.095-55.274z"/></g><g><path d="M-255.145-68.614v-9.508c0-1.201-0.974-2.175-2.175-2.175c-1.201,0-2.175,0.974-2.175,2.175v9.508   c-2.389,0.89-4.109,3.146-4.109,5.845s1.72,4.954,4.109,5.844v21.823c0,1.201,0.974,2.175,2.175,2.175   c1.201,0,2.175-0.974,2.175-2.175v-21.823c2.389-0.89,4.109-3.145,4.109-5.844S-252.756-67.725-255.145-68.614z"/><path d="M-236.293-49.473v-28.649c0-1.201-0.974-2.175-2.175-2.175c-1.201,0-2.175,0.974-2.175,2.175v28.839   c-2.2,0.978-3.746,3.165-3.746,5.728c0,2.563,1.546,4.75,3.746,5.728v2.726c0,1.201,0.974,2.175,2.175,2.175   c1.201,0,2.175-0.974,2.175-2.175v-2.536c2.569-0.789,4.471-3.09,4.471-5.918C-231.822-46.383-233.724-48.685-236.293-49.473z"/><path d="M-213.151-56.486c0-2.763-1.812-5.039-4.29-5.881v-15.756c0-1.201-0.974-2.175-2.175-2.175s-2.175,0.974-2.175,2.175   v15.829c-2.299,0.934-3.927,3.174-3.927,5.808s1.628,4.875,3.927,5.808v15.576c0,1.201,0.974,2.175,2.175,2.175   s2.175-0.974,2.175-2.175v-15.503C-214.963-51.446-213.151-53.723-213.151-56.486z"/></g><path d="M-225.777-58.787h-39.362c-0.172,0-0.28,0.145-0.44,0.182l14.432-14.432c0.849-0.849,0.849-2.227,0-3.076  c-0.849-0.849-2.227-0.849-3.076,0h0l-14.729,14.729c-1.314,1.312-1.979,3.052-1.977,4.772c-0.002,1.719,0.663,3.459,1.977,4.772  l14.729,14.729c0.849,0.849,2.227,0.849,3.076,0c0.849-0.849,0.849-2.227,0-3.076l-14.432-14.432c0.16,0.038,0.268,0.182,0.44,0.182  h39.362c8.615,0.016,15.586,6.986,15.601,15.601c0,1.201,0.974,2.175,2.175,2.175c1.201,0,2.175-0.974,2.175-2.175  C-205.826-49.856-214.757-58.786-225.777-58.787z"/><path d="M-210.528-66.385v26.037c-0.008,6.794-5.532,12.317-12.326,12.326h-31.772c-6.794-0.008-12.318-5.532-12.326-12.326V-72.12  c0.008-6.794,5.532-12.318,12.326-12.326h26.037c1.201,0,2.175,0.974,2.175,2.175c0,1.201-0.974,2.175-2.175,2.175h-26.037  c-4.372,0.008-7.968,3.604-7.976,7.976v31.772c0.008,4.372,3.604,7.967,7.976,7.975h31.772c4.372-0.008,7.967-3.604,7.975-7.975  v-26.037h0c0-1.201,0.974-2.175,2.175-2.175C-211.502-68.56-210.528-67.586-210.528-66.385z M-239.969-57.386l-0.91,2.25l1.01,1.01  l2.25-0.91c0.804-0.325,1.535-0.809,2.148-1.422l19.306-19.306c0.849-0.849,0.849-2.227,0-3.076c-0.849-0.849-2.227-0.849-3.076,0  l-19.306,19.306C-239.16-58.921-239.644-58.191-239.969-57.386z M-210.767-80.136l0.115-0.115c1.133-1.133,1.133-2.969,0-4.102  c-1.133-1.133-2.969-1.133-4.102,0l-0.115,0.115c-1.133,1.133-1.133,2.969,0,4.102C-213.736-79.003-211.9-79.003-210.767-80.136z"/><g><path d="M-220.419-69.545h-5.024v-2.175c0-1.201-0.974-2.175-2.175-2.175c-1.201,0-2.175,0.974-2.175,2.175v2.175h-9.19   c-6.794,0.008-12.318,5.532-12.326,12.326v9.19h-2.515c-1.201,0-2.175,0.974-2.175,2.175c0,1.201,0.974,2.175,2.175,2.175h2.515   v5.025c0.008,6.794,5.532,12.317,12.326,12.326h18.565c6.794-0.008,12.318-5.532,12.326-12.326v-18.565   C-208.102-64.013-213.625-69.537-220.419-69.545z M-212.444-38.654c-0.008,4.372-3.604,7.967-7.976,7.975h-18.565   c-4.372-0.008-7.968-3.604-7.976-7.975v-18.565c0.008-4.372,3.604-7.968,7.976-7.976h18.565c4.372,0.008,7.968,3.604,7.976,7.976   V-38.654z"/><path d="M-266.486-66.394c1.201,0,2.175-0.974,2.175-2.175h0v-6.001c0-0.66,0.081-1.298,0.233-1.909   c0.289-1.166-0.421-2.346-1.587-2.635c-1.166-0.29-2.346,0.421-2.635,1.587c-0.236,0.949-0.361,1.942-0.36,2.957v6.001   C-268.661-67.368-267.687-66.394-266.486-66.394z"/><path d="M-262.393-50.835c-1.199-1.404-1.917-3.201-1.918-5.17v-1.287c0-1.201-0.974-2.175-2.175-2.175   c-1.201,0-2.175,0.974-2.175,2.175v1.287c-0.001,3.044,1.122,5.851,2.963,7.998c0.781,0.913,2.154,1.019,3.067,0.238   C-261.718-48.549-261.611-49.922-262.393-50.835L-262.393-50.835z"/><path d="M-238.804-82.545h1.034c2.04,0.001,3.896,0.772,5.319,2.049c0.893,0.803,2.269,0.73,3.072-0.163s0.73-2.269-0.163-3.072   c-2.177-1.96-5.074-3.165-8.228-3.165h-1.034c-1.201,0-2.175,0.974-2.175,2.175S-240.005-82.545-238.804-82.545z"/><polygon points="-258.051,-82.358 -258.051,-82.358 -258.051,-82.358  "/><path d="M-250.082-82.545c1.201,0,2.175-0.974,2.175-2.175s-0.974-2.175-2.175-2.175h-6.253c-0.91,0-1.8,0.1-2.658,0.291   c-1.173,0.26-1.913,1.422-1.653,2.594c0.26,1.173,1.422,1.913,2.595,1.653l1.716-0.187H-250.082z"/></g><path d="M-209.898-60.293l-22.344-21.957c-1.698-1.67-3.926-2.512-6.135-2.51c-2.21-0.002-4.438,0.841-6.135,2.51l-22.344,21.957  c-0.857,0.842-0.869,2.219-0.027,3.076c0.842,0.857,2.219,0.869,3.076,0.027l4.374-4.299v30.849l0.637,1.538l1.538,0.637h12.102  l1.538-0.637l0.637-1.538l0-13.143c0.004-2.494,2.023-4.512,4.517-4.517c2.494,0.004,4.512,2.023,4.516,4.517l0,13.144l0.637,1.538  l1.538,0.637h12.276l1.538-0.637l0.637-1.538v-30.847l4.372,4.296c0.857,0.842,2.234,0.83,3.076-0.027  C-209.029-58.074-209.041-59.451-209.898-60.293z M-221.67-32.815h-7.926l0-10.968c-0.001-4.898-3.969-8.866-8.867-8.867  c-4.898,0.002-8.866,3.969-8.867,8.868l0,10.968h-7.751v-32.949l13.619-13.383c0.862-0.845,1.965-1.26,3.086-1.263  c1.121,0.002,2.224,0.417,3.086,1.263l13.621,13.385V-32.815z"/><path d="M-259.78-71.331h42.806c3.691-0.008,6.676-2.993,6.684-6.684c-0.008-3.691-2.993-6.676-6.684-6.684h-42.806  c-3.691,0.008-6.676,2.993-6.684,6.684C-266.456-74.324-263.471-71.34-259.78-71.331z M-259.78-80.348h42.806  c1.269,0.002,2.331,1.064,2.333,2.333c-0.003,1.269-1.065,2.331-2.333,2.333h-42.806c-1.269-0.002-2.331-1.064-2.333-2.333  C-262.111-79.284-261.049-80.346-259.78-80.348z M-216.975-41.893h-42.806c-3.691,0.008-6.676,2.993-6.684,6.684  c0.008,3.691,2.993,6.676,6.684,6.684h42.806c3.691-0.008,6.676-2.993,6.684-6.684C-210.299-38.9-213.284-41.885-216.975-41.893z   M-216.975-32.876h-42.806c-1.269-0.002-2.331-1.065-2.333-2.333c0.003-1.269,1.065-2.331,2.333-2.333h42.806  c1.269,0.002,2.331,1.064,2.333,2.333C-214.644-33.941-215.706-32.878-216.975-32.876z M-216.975-63.296h-42.806  c-3.691,0.008-6.676,2.993-6.684,6.684v0c0.008,3.69,2.993,6.675,6.684,6.684h42.806c3.691-0.008,6.676-2.993,6.684-6.684v0  C-210.299-60.303-213.284-63.287-216.975-63.296z M-214.641-56.612c-0.003,1.269-1.065,2.331-2.333,2.333h-42.806  c-1.269-0.002-2.331-1.064-2.333-2.333v0c0.003-1.269,1.065-2.331,2.333-2.333h42.806  C-215.706-58.943-214.644-57.881-214.641-56.612L-214.641-56.612z"/><path d="M-238.956-80.028v2.175c4.003,0.002,7.669,1.825,10.402,4.879c2.724,3.052,4.451,7.314,4.45,12.031v12.793  c0.075,1.893,0.969,3.21,1.982,4.74c1.561,2.228,3.74,4.609,5.511,6.637c0.882,1.007,1.662,1.925,2.168,2.611l0.516,0.779  l0.045,0.091l1.06-0.358l-1.109,0l0.049,0.358l1.06-0.358l-1.109,0h1.776l-1.038-1.421l-0.738,1.421h1.776l-1.038-1.421l0.793,1.086  l0-1.388l-0.793,0.302l0.793,1.086l0-1.388h-51.901v1.368l0.821-1.034l-0.821-0.334v1.368l0.821-1.034l-1.04,1.309l1.696,0  l-0.655-1.309l-1.04,1.309l1.696,0h-0.691l0.668,0.236l0.023-0.236h-0.691l0.668,0.236c0.043-0.194,0.657-1.209,1.501-2.307  c1.272-1.698,3.061-3.847,4.57-5.94c0.756-1.051,1.446-2.089,1.984-3.115c0.525-1.037,0.963-2.029,0.986-3.296v-12.793  c-0.001-4.717,1.725-8.979,4.45-12.031c2.733-3.055,6.398-4.877,10.402-4.879V-80.028v-2.175  c-10.775,0.047-19.183,9.737-19.202,21.261v12.793c0.042,0.029-0.285,1.099-1.076,2.287c-1.151,1.839-3.024,4.143-4.628,6.195  c-0.805,1.033-1.545,2.004-2.13,2.902l-0.762,1.343c-0.203,0.467-0.407,0.94-0.422,1.696c-0.032,0.589,0.27,1.555,0.988,2.097  c0.7,0.537,1.376,0.604,1.885,0.61h51.901c0.471-0.009,1.081-0.052,1.773-0.536c0.717-0.482,1.088-1.483,1.046-2.092  c-0.053-1.119-0.426-1.614-0.764-2.224c-1.235-1.949-3.633-4.42-5.791-6.968c-1.069-1.252-2.057-2.488-2.726-3.512l-0.731-1.303  l-0.14-0.393l-0.021-0.102v-12.793c-0.019-11.524-8.427-21.214-19.202-21.261V-80.028z"/><path d="M-232.69-61.092l0.115,1.357l2.167-0.184h-2.175c-0.006,3.199-2.595,5.788-5.794,5.794  c-3.199-0.006-5.788-2.595-5.794-5.794h-2.175l2.167,0.184l0.115-1.356c0.101-1.197-0.787-2.25-1.984-2.351  c-1.197-0.101-2.249,0.787-2.351,1.984l-0.115,1.356l-0.008,0.184c0.001,5.603,4.541,10.143,10.144,10.144  c5.603-0.001,10.143-4.541,10.144-10.144l-0.008-0.184l-0.115-1.357c-0.102-1.197-1.154-2.085-2.351-1.984  C-231.904-63.341-232.792-62.288-232.69-61.092L-232.69-61.092z"/><path d="M-210.093-85.532c-0.969-0.647-2.223-0.975-3.779-0.976c-2.503,0-45.984,0.003-48.93,0.003  c-1.676,0.02-2.927,0.188-4.076,1.006l-1.193,1.596l-0.239,1.467c-0.008,1.258,0.267,2.553,1.212,3.514  c2.642,2.671,13.577,13.726,18.812,19.024l0.143,0.251l0.077,0.274c0.035,3.047,0.05,6.096,0.05,9.147  c0,2.693-0.011,5.387-0.029,8.082l0,0l0,0.077c-0.046,1.588,0.65,3.262,1.83,4.35c3.106,3.037,6.172,6.144,9.281,9.235l0.171,0.153  l1.074,0.862l0.423,0.266c0.644,0.309,1.348,0.485,2.06,0.484c1.348,0.014,2.63-0.672,3.401-1.677  c0.788-1.004,1.154-2.266,1.156-3.6c0.004-4.155,0.008-8.31,0.008-12.465c0-4.914-0.005-9.828-0.022-14.744l0-0.012l0.336-0.877  c5.291-5.226,18.281-18.437,18.713-18.869l0.577-1.03l0.533-2.216l0.06-0.509C-208.475-83.961-209.142-84.872-210.093-85.532z   M-231.385-63.187c-1.11,1.015-1.686,2.634-1.629,3.973l0.001,0.027h0c0.016,4.909,0.022,9.818,0.022,14.729  c0,4.153-0.004,8.306-0.008,12.46l-0.221,0.91l-0.012,0.013l-0.004-0.001l-0.713-0.572c-3.062-3.045-6.111-6.133-9.227-9.179  c-0.459-0.514-0.474-0.551-0.52-1.24v-0.022c0.018-2.711,0.029-5.424,0.029-8.137c0-3.065-0.015-6.131-0.049-9.198  c-0.066-1.397-0.533-2.508-1.477-3.533c-5.188-5.25-15.943-16.124-18.713-18.923l-0.02-0.197l1.122-0.078  c2.947,0,46.427-0.003,48.93-0.003c0.4,0,0.647,0.046,0.86,0.091l-0.113,0.471C-215.196-79.499-226.527-67.985-231.385-63.187z"/><path d="M-243.559-84.699h-20.729l-1.538,0.637l-0.637,1.538v20.729l0.637,1.538l1.538,0.637h20.729l1.538-0.637l0.637-1.538  v-20.729l-0.637-1.538L-243.559-84.699z M-245.735-63.969h-16.379v-16.379h16.379V-63.969z M-210.928-84.061l-1.538-0.637h-20.729  l-1.538,0.637l-0.637,1.538v20.729l0.637,1.538l1.538,0.637h20.729l1.538-0.637l0.637-1.538v-20.729L-210.928-84.061z   M-214.641-63.969h-16.379v-16.379h16.379V-63.969z M-243.559-53.605h-20.729l-1.538,0.637l-0.637,1.538v20.729l0.637,1.538  l1.538,0.637h20.729l1.538-0.637l0.637-1.538V-51.43l-0.637-1.538L-243.559-53.605z M-245.735-32.876h-16.379v-16.379h16.379  V-32.876z M-212.466-53.605h-20.729l-1.538,0.637l-0.637,1.538v20.729l0.637,1.538l1.538,0.637h20.729l1.538-0.637l0.637-1.538  V-51.43l-0.637-1.538L-212.466-53.605z M-214.641-32.876h-16.379v-16.379h16.379V-32.876z"/><g><path d="M-222.617-81.881h-31.521c-6.794,0.008-12.318,5.532-12.326,12.326v11.944c0.008,6.794,5.532,12.318,12.326,12.326   c0.005,0,2.432,0,5.241,0c2.701,0,5.713,0,7.285,0c0.253,0.087,1.381,1.008,2.646,2.308c4.08,3.954,10.439,11.493,19.198,11.634   c0.791,0,1.524-0.433,1.905-1.126c0.382-0.693,0.356-1.543-0.067-2.212c-2.695-4.271-3.258-7.305-3.262-9.189   c0-0.688,0.081-1.178,0.171-1.579c6.033-0.798,10.722-5.916,10.729-12.163v-11.944C-210.299-76.349-215.823-81.873-222.617-81.881z    M-214.641-57.611c-0.008,4.372-3.603,7.968-7.975,7.976c-0.756,0-1.454,0.389-1.851,1.032c-0.167,0.264-1.076,1.892-1.073,4.734   c-0.003,1.914,0.474,4.381,1.716,7.272c-2.833-1.122-5.607-3.175-8.046-5.481c-1.801-1.683-3.409-3.4-4.826-4.769   c-0.714-0.687-1.373-1.287-2.063-1.783c-0.701-0.47-1.406-0.963-2.633-1.005c-3.016,0-12.732,0-12.744,0   c-4.372-0.008-7.968-3.604-7.976-7.976v-11.944c0.008-4.372,3.604-7.968,7.976-7.976h31.521c4.372,0.008,7.967,3.604,7.975,7.976   V-57.611z"/><path d="M-223.876-70.653h-29.003c-1.201,0-2.175,0.974-2.175,2.175c0,1.201,0.974,2.175,2.175,2.175h29.003   c1.201,0,2.175-0.974,2.175-2.175C-221.701-69.679-222.675-70.653-223.876-70.653z"/><path d="M-223.876-60.864h-29.003c-1.201,0-2.175,0.974-2.175,2.175c0,1.201,0.974,2.175,2.175,2.175h29.003   c1.201,0,2.175-0.974,2.175-2.175C-221.701-59.89-222.675-60.864-223.876-60.864z"/></g><g><path d="M-219.717-73.132c-1.201,0-2.175,0.974-2.175,2.175h0v31.521c-0.008,4.372-3.603,7.968-7.975,7.976h-17.019   c-4.372-0.008-7.968-3.604-7.976-7.976v-31.521c0-1.201-0.974-2.175-2.175-2.175c-1.201,0-2.175,0.974-2.175,2.175l0,31.521   c0.008,6.794,5.532,12.318,12.326,12.326h17.019c6.794-0.008,12.317-5.532,12.326-12.326v-31.521   C-217.542-72.158-218.516-73.132-219.717-73.132z"/><path d="M-236.202-37.912v-29.304c0-1.201-0.974-2.175-2.175-2.175c-1.201,0-2.175,0.974-2.175,2.175v29.304   c0,1.201,0.974,2.175,2.175,2.175C-237.176-35.736-236.202-36.71-236.202-37.912z"/><path d="M-213.074-79.059h-14.739v-0.317c-0.008-3.721-3.018-6.731-6.738-6.739h-7.651c-3.721,0.008-6.73,3.018-6.739,6.739v0.317   h-14.739c-1.201,0-2.175,0.974-2.175,2.175c0,1.201,0.974,2.175,2.175,2.175h50.606c1.201,0,2.175-0.974,2.175-2.175   C-210.899-78.085-211.873-79.059-213.074-79.059z M-244.591-79.376c0.002-1.299,1.089-2.386,2.388-2.388h7.651   c1.299,0.002,2.385,1.089,2.388,2.388v0.317h-12.427V-79.376z"/><path d="M-228.226-35.736c1.201,0,2.175-0.974,2.175-2.175v-29.304c0-1.201-0.974-2.175-2.175-2.175   c-1.201,0-2.175,0.974-2.175,2.175v29.304C-230.401-36.71-229.428-35.736-228.226-35.736z"/><path d="M-246.353-37.912v-29.304c0-1.201-0.974-2.175-2.175-2.175c-1.201,0-2.175,0.974-2.175,2.175v29.304   c0,1.201,0.974,2.175,2.175,2.175C-247.327-35.736-246.353-36.71-246.353-37.912z"/></g><g><path d="M-219.151-73.122c-1.196-0.11-2.255,0.77-2.365,1.966h0l-2.9,31.521l-0.009,0.199c0.002,2.277-0.811,4.319-2.048,5.747   c-1.247,1.432-2.84,2.227-4.55,2.229h-14.708c-1.71-0.002-3.303-0.797-4.55-2.229c-1.236-1.428-2.049-3.47-2.047-5.747   l-0.009-0.199l-2.9-31.521c-0.111-1.196-1.169-2.076-2.365-1.966c-1.196,0.11-2.077,1.169-1.966,2.365l2.9,31.521l0.008-0.001   c0.048,3.227,1.186,6.187,3.089,8.393c1.933,2.248,4.726,3.737,7.841,3.735h14.708c3.115,0.002,5.908-1.487,7.841-3.735   c1.903-2.206,3.041-5.166,3.089-8.393l0.008,0.001l2.901-31.521C-217.074-71.953-217.955-73.012-219.151-73.122z"/><path d="M-213.074-79.059h-14.74v-0.317c-0.008-3.721-3.017-6.731-6.738-6.739h-7.651c-3.721,0.008-6.73,3.017-6.739,6.739v0.317   h-14.739c-1.201,0-2.175,0.974-2.175,2.175c0,1.201,0.974,2.175,2.175,2.175h50.606c1.201,0,2.175-0.974,2.175-2.175   C-210.899-78.085-211.873-79.059-213.074-79.059z M-244.591-79.376c0.002-1.299,1.09-2.386,2.388-2.388h7.651   c1.299,0.002,2.385,1.089,2.388,2.388v0.317h-12.427V-79.376z"/><path d="M-230.404-37.804l1.45-29.305c0.059-1.2-0.865-2.221-2.065-2.28c-1.2-0.059-2.221,0.865-2.28,2.065l-1.45,29.305   c-0.059,1.2,0.865,2.221,2.065,2.28C-231.484-35.679-230.464-36.604-230.404-37.804z"/><path d="M-244.07-35.739c1.2-0.059,2.124-1.08,2.065-2.28l-1.45-29.305c-0.059-1.2-1.08-2.124-2.28-2.065   c-1.2,0.059-2.124,1.08-2.065,2.28l1.45,29.305C-246.291-36.604-245.27-35.679-244.07-35.739z"/></g><path d="M-210.928-58.15l-8.418-8.417c-0.849-0.85-2.227-0.85-3.076,0c-0.849,0.849-0.849,2.227,0,3.076h0l4.705,4.705h-18.485  v-18.485l4.705,4.704c0.849,0.85,2.227,0.85,3.076,0c0.849-0.849,0.85-2.227,0-3.076l-8.418-8.418  c-0.394-0.394-0.937-0.637-1.538-0.637c-0.6,0-1.145,0.243-1.538,0.637l-8.418,8.418c-0.849,0.849-0.849,2.227,0,3.076  c0.85,0.849,2.227,0.849,3.076,0v0l4.704-4.704v18.484h-18.485l4.705-4.705c0.849-0.849,0.849-2.227,0-3.076  c-0.849-0.849-2.227-0.849-3.076,0l-8.418,8.417c-0.394,0.394-0.637,0.937-0.637,1.538c0,0.6,0.243,1.145,0.637,1.538l8.418,8.418  c0.849,0.849,2.227,0.849,3.076,0c0.849-0.849,0.85-2.227,0-3.076h0l-4.704-4.704h18.484v18.484l-4.704-4.704  c-0.849-0.849-2.227-0.849-3.076,0c-0.849,0.849-0.849,2.227,0,3.076l8.417,8.418c0.394,0.394,0.938,0.637,1.538,0.637  c0.601,0,1.145-0.243,1.538-0.637l8.417-8.418c0.849-0.849,0.849-2.227,0-3.076c-0.849-0.849-2.227-0.849-3.076,0l-4.705,4.704  v-18.484h18.484l-4.704,4.704c-0.849,0.849-0.849,2.227,0,3.076c0.85,0.849,2.227,0.849,3.076,0l8.418-8.418  c0.394-0.394,0.637-0.938,0.637-1.538C-210.291-57.213-210.534-57.757-210.928-58.15z"/><path d="M-220.055-60.854c1.201,0,2.175-0.974,2.175-2.175v-11.904c0-0.557-0.213-1.113-0.637-1.538  c-0.425-0.425-0.981-0.637-1.538-0.637h-11.905c-1.201,0-2.175,0.974-2.175,2.175s0.974,2.175,2.175,2.175h6.653l-13.071,13.071  l-13.071-13.071h6.653c1.201,0,2.175-0.974,2.175-2.175s-0.974-2.175-2.175-2.175l-11.904,0c-0.557,0-1.113,0.213-1.538,0.637  c-0.425,0.425-0.637,0.982-0.637,1.538v11.904c0,1.201,0.974,2.175,2.175,2.175c1.201,0,2.175-0.974,2.175-2.175h0v-6.653  l13.071,13.071l-13.071,13.071v-6.653c0-1.201-0.974-2.175-2.175-2.175c-1.201,0-2.175,0.974-2.175,2.175v11.904  c0,0.557,0.212,1.113,0.637,1.538l1.538,0.637h11.904c1.201,0,2.175-0.974,2.175-2.175c0-1.201-0.974-2.175-2.175-2.175h-6.653  l13.071-13.071l13.071,13.071h-6.653c-1.201,0-2.175,0.974-2.175,2.175c0,1.201,0.974,2.175,2.175,2.175h11.905l1.538-0.637  c0.425-0.425,0.637-0.981,0.637-1.538v-11.904c0-1.201-0.974-2.175-2.175-2.175c-1.201,0-2.175,0.974-2.175,2.175v6.653  l-13.071-13.071l13.071-13.071v6.653C-222.231-61.828-221.257-60.854-220.055-60.854z"/><g><path d="M-234.027-58.787h11.904c1.201,0,2.175-0.974,2.175-2.175c0-1.201-0.974-2.175-2.175-2.175h-6.653l10.258-10.258   c0.849-0.849,0.849-2.227,0-3.076c-0.849-0.849-2.227-0.849-3.076,0l-10.259,10.258v-6.653c0-1.201-0.974-2.175-2.175-2.175   s-2.175,0.974-2.175,2.175v11.904c0,0.557,0.212,1.113,0.637,1.538L-234.027-58.787z"/><path d="M-242.727-75.042c-1.201,0-2.175,0.974-2.175,2.175v6.653l-10.258-10.258c-0.849-0.849-2.227-0.849-3.076,0   s-0.849,2.227,0,3.076l10.259,10.258h-6.653c-1.201,0-2.175,0.974-2.175,2.175c0,1.201,0.974,2.175,2.175,2.175h11.905l1.538-0.637   l0.637-1.538v-11.904C-240.552-74.068-241.526-75.042-242.727-75.042z"/><path d="M-242.727-54.437h-11.905c-1.201,0-2.175,0.974-2.175,2.175c0,1.201,0.974,2.175,2.175,2.175h6.653l-10.259,10.258   c-0.849,0.85-0.849,2.227,0,3.076s2.227,0.849,3.076,0l10.258-10.258v6.653c0,1.201,0.974,2.175,2.175,2.175   c1.201,0,2.175-0.974,2.175-2.175v-11.904l-0.637-1.538L-242.727-54.437z"/><path d="M-228.775-50.087h6.653c1.201,0,2.175-0.974,2.175-2.175c0-1.201-0.974-2.175-2.175-2.175l-11.904,0l-1.538,0.637   l-0.637,1.538v11.904c0,1.201,0.974,2.175,2.175,2.175s2.175-0.974,2.175-2.175h0v-6.653l10.259,10.258   c0.849,0.849,2.227,0.849,3.076,0c0.849-0.849,0.849-2.227,0-3.076L-228.775-50.087z"/></g><path d="M-213.882-39.469c-0.921-0.771-2.293-0.65-3.064,0.272h0c-4.404,5.256-10.997,8.592-18.387,8.593  c-13.237-0.024-23.944-10.732-23.968-23.968c0.024-13.236,10.731-23.943,23.968-23.967c5.001,0.001,9.627,1.535,13.466,4.149  l-7.053,1.244c-1.183,0.209-1.973,1.337-1.765,2.52c0.209,1.183,1.337,1.973,2.52,1.765l11.723-2.067l0.635-0.405  c0.155-0.091,0.35-0.067,0.483-0.2c0.04-0.04,0.024-0.103,0.06-0.146l0.225-0.144l0.192-0.866c0.034-0.178,0.121-0.318,0.111-0.499  l0.058-0.261l-2.067-11.724c-0.209-1.183-1.337-1.973-2.52-1.764c-1.183,0.209-1.973,1.337-1.764,2.519h0l1.079,6.119  c-4.435-2.881-9.708-4.593-15.384-4.592c-15.641,0.001-28.317,12.677-28.318,28.318c0.001,15.641,12.678,28.317,28.318,28.318  c8.72,0.001,16.536-3.95,21.723-10.151C-212.839-37.326-212.961-38.698-213.882-39.469z"/><path d="M-219.596-55.054c-0.984-0.689-2.34-0.45-3.029,0.534l-3.564,5.09c-1.099-5.172-3.617-10.112-7.631-14.125  c-5.522-5.523-12.779-8.297-20.016-8.294c-0.749,0-1.497,0.029-2.245,0.088c-1.197,0.095-2.092,1.142-1.997,2.34  c0.094,1.198,1.142,2.092,2.339,1.998l1.903-0.075c6.138,0.002,12.256,2.337,16.94,7.02c3.536,3.537,5.722,7.892,6.588,12.456  l-5.866-4.107c-0.984-0.689-2.341-0.45-3.029,0.534c-0.689,0.984-0.45,2.341,0.534,3.03l9.751,6.828l0.733,0.162  c0.176,0.046,0.296,0.201,0.486,0.201c0.057,0,0.091-0.056,0.146-0.061l0.26,0.058l0.748-0.476c0.15-0.102,0.311-0.14,0.431-0.275  l0.225-0.143l6.828-9.752C-218.373-53.008-218.612-54.364-219.596-55.054z"/><g><path d="M-212.466-58.787c-1.201,0-2.175,0.974-2.175,2.175c-0.009,5.015-4.129,9.135-9.144,9.145h-9.15h-19.23h-3.095l5.045-5.044   c0.849-0.85,0.849-2.227,0-3.076c-0.849-0.849-2.227-0.849-3.076,0l-8.758,8.758c-0.425,0.425-0.638,0.981-0.637,1.538v0   c0,0.6,0.243,1.144,0.637,1.538l8.757,8.758c0.849,0.849,2.227,0.849,3.076,0c0.849-0.849,0.849-2.227,0-3.076l-5.044-5.045h3.095   h19.23h9.15c7.437-0.008,13.486-6.058,13.495-13.495C-210.291-57.814-211.265-58.787-212.466-58.787z"/><path d="M-252.969-65.757h31.475l-5.044,5.044c-0.85,0.849-0.85,2.227,0,3.076c0.849,0.849,2.227,0.849,3.076,0l8.757-8.758   c0.394-0.394,0.637-0.938,0.637-1.538c0-0.601-0.244-1.145-0.638-1.539l-8.756-8.757c-0.85-0.849-2.227-0.849-3.076,0   c-0.849,0.849-0.849,2.227,0,3.076l5.045,5.045h-31.475c-7.437,0.008-13.487,6.058-13.495,13.495c0,1.201,0.974,2.175,2.175,2.175   s2.175-0.974,2.175-2.175C-262.104-61.627-257.984-65.748-252.969-65.757z"/></g><g><path d="M-236.202-56.612c0.008-4.282,3.529-7.803,7.811-7.811h10.83l-2.273,2.273c-0.849,0.849-0.849,2.227,0,3.076   c0.85,0.849,2.227,0.849,3.076,0l5.986-5.986l0.637-1.538l-0.637-1.538l-5.986-5.986c-0.849-0.849-2.227-0.849-3.076,0   c-0.849,0.849-0.849,2.227,0,3.076h0l2.272,2.272h-10.829c-6.703,0.008-12.153,5.458-12.161,12.162   c-0.008,4.281-3.529,7.803-7.811,7.811h-16.081c-1.201,0-2.175,0.974-2.175,2.175c0,1.201,0.974,2.175,2.175,2.175h16.081   c6.703-0.008,12.152-5.457,12.161-12.16C-236.202-56.611-236.202-56.612-236.202-56.612L-236.202-56.612z"/><path d="M-264.445-64.423h16.081c1.051,0,2.046,0.209,2.961,0.587c1.11,0.46,2.382-0.067,2.842-1.177   c0.46-1.11-0.067-2.382-1.177-2.842c-1.427-0.591-2.995-0.918-4.626-0.918h-16.081c-1.201,0-2.175,0.974-2.175,2.175   S-265.646-64.423-264.445-64.423z"/><path d="M-216.758-54.15c-0.849-0.849-2.227-0.849-3.076,0c-0.849,0.849-0.849,2.227,0,3.076h0l2.272,2.272h-10.829   c-1.051,0-2.046-0.209-2.961-0.587c-1.11-0.459-2.383,0.068-2.842,1.178c-0.46,1.11,0.067,2.382,1.178,2.842h0   c1.427,0.592,2.995,0.919,4.626,0.918h10.83l-2.273,2.273c-0.849,0.849-0.849,2.227,0,3.076c0.85,0.849,2.227,0.849,3.076,0   l5.986-5.986c0.394-0.394,0.637-0.938,0.637-1.538c0-0.601-0.244-1.145-0.637-1.538L-216.758-54.15z"/></g><g><path d="M-257.518-70.187h21.417c1.201,0,2.175-0.974,2.175-2.175c0-1.201-0.974-2.175-2.175-2.175h-21.417   c-1.201,0-2.175,0.974-2.175,2.175C-259.693-71.161-258.719-70.187-257.518-70.187z"/><path d="M-218.307-68.853h-7.193v-4.306c-0.008-5.333-4.338-9.663-9.671-9.671h-23.276c-5.333,0.008-9.663,4.338-9.671,9.671v8.82   c0.008,4.731,3.48,8.489,7.971,9.325c0.039,0.23,0.077,0.477,0.077,0.822c-0.004,1.271-0.378,3.4-2.321,6.482   c-0.422,0.669-0.448,1.519-0.066,2.212c0.382,0.693,1.114,1.125,1.905,1.125c3.9-0.051,7.077-1.992,9.673-4.137   c0.897,4.415,4.618,7.811,9.295,7.818c0.004,0,1.796,0,3.87,0c1.92,0,4.037,0,5.231,0l0.033,0.021   c0.411,0.277,1.264,1.098,2.253,2.106c3.047,2.981,7.578,8.048,13.993,8.168c0.791,0,1.524-0.433,1.905-1.125   c0.382-0.693,0.356-1.543-0.067-2.212c-1.943-3.082-2.317-5.21-2.321-6.482l0.111-0.829c4.476-0.85,7.931-4.599,7.939-9.319v-8.82   C-208.644-64.515-212.974-68.845-218.307-68.853z M-263.768-64.338v-8.82c0.005-2.912,2.408-5.315,5.321-5.321h23.276   c2.912,0.005,5.315,2.409,5.321,5.321v4.306h-11.733c-1.886,0.003-3.544,0.687-5.032,1.623c-0.074-0.008-0.118-0.08-0.193-0.08   h-10.709c-1.201,0-2.175,0.974-2.175,2.175c0,1.201,0.974,2.175,2.175,2.175h7.039c-0.496,1.161-0.774,2.437-0.776,3.778v5.183   c-1.593,1.581-3.405,3.044-5.246,4.046c0.549-1.625,0.783-3.059,0.782-4.238c0.002-2.219-0.71-3.53-0.877-3.794   c-0.397-0.643-1.095-1.033-1.851-1.033C-261.36-59.023-263.763-61.426-263.768-64.338z M-212.986-50.361   c-0.005,2.912-2.409,5.315-5.321,5.321c-0.756,0-1.454,0.39-1.851,1.033c-0.167,0.264-0.88,1.575-0.877,3.794   c-0.002,1.19,0.238,2.64,0.799,4.284c-1.564-0.845-3.108-2.041-4.516-3.376c-1.314-1.228-2.495-2.488-3.557-3.516l-1.587-1.37   c-0.561-0.37-1.147-0.807-2.275-0.849c-2.227,0-9.402,0-9.411,0c-2.912-0.005-5.316-2.409-5.321-5.321v-8.82   c0.005-2.912,2.409-5.315,5.321-5.321h23.276c2.912,0.005,5.315,2.408,5.321,5.321V-50.361z"/><path d="M-219.237-60.561h-21.417c-1.201,0-2.175,0.974-2.175,2.175c0,1.201,0.974,2.175,2.175,2.175h21.417   c1.201,0,2.175-0.974,2.175-2.175C-217.062-59.587-218.036-60.561-219.237-60.561z"/><path d="M-219.237-53.333h-21.417c-1.201,0-2.175,0.974-2.175,2.175c0,1.201,0.974,2.175,2.175,2.175h21.417   c1.201,0,2.175-0.974,2.175-2.175C-217.062-52.359-218.036-53.333-219.237-53.333z"/></g><g><path d="M-217.83-39.197L-217.83-39.197c-4.404,5.256-10.997,8.592-18.388,8.593c-13.236-0.024-23.944-10.731-23.968-23.967   c0.024-13.236,10.732-23.944,23.968-23.968c5.001,0.001,9.627,1.535,13.466,4.15l-7.053,1.243c-1.183,0.209-1.973,1.337-1.765,2.52   c0.209,1.183,1.337,1.973,2.52,1.765l11.723-2.068l0.634-0.403c0.156-0.092,0.351-0.067,0.485-0.201   c0.04-0.04,0.024-0.103,0.06-0.146l0.225-0.143l0.192-0.865c0.034-0.178,0.121-0.32,0.111-0.5l0.058-0.261l-2.067-11.723   c-0.209-1.183-1.337-1.973-2.52-1.765s-1.973,1.337-1.764,2.52h0l1.079,6.119c-4.435-2.88-9.708-4.592-15.384-4.591   c-15.641,0.001-28.317,12.677-28.318,28.318c0.001,15.641,12.677,28.317,28.318,28.318c8.72,0.001,16.537-3.95,21.724-10.151   c0.771-0.921,0.649-2.293-0.272-3.064C-215.688-40.24-217.059-40.118-217.83-39.197z"/><polygon points="-246.568,-47.792 -246.568,-61.272 -249.244,-61.272 -252.355,-59.066 -252.355,-56.464 -249.622,-58.255    -249.622,-47.792  "/><path d="M-244.081-51.6c0,2.639,2.301,4.015,5.279,4.015c2.998,0,5.26-1.452,5.26-4.091c0-1.602-0.887-2.771-2.47-3.318   c1.188-0.528,1.961-1.452,1.961-2.809c0-2.3-2.15-3.657-4.733-3.657c-2.527,0-4.769,1.338-4.769,3.676   c0,1.358,0.735,2.3,1.961,2.809C-243.137-54.428-244.081-53.241-244.081-51.6z M-238.783-59.33c1.075,0,1.905,0.698,1.905,1.734   c0,1.112-0.792,1.772-1.885,1.772c-1.057,0-1.943-0.66-1.943-1.753C-240.706-58.67-239.858-59.33-238.783-59.33z M-238.783-53.957   c1.263,0,2.225,0.735,2.225,2.055c0,1.338-0.962,2.092-2.243,2.092c-1.244,0-2.243-0.735-2.243-2.074   C-241.045-53.222-240.026-53.957-238.783-53.957z"/><path d="M-232.127-54.843v0.641c0,4.128,2.281,6.617,5.863,6.617c3.639,0,5.882-2.564,5.882-6.693V-54.9   c0-4.185-2.395-6.56-5.863-6.56C-229.714-61.46-232.127-58.99-232.127-54.843z M-223.418-54.861v0.603   c0,2.827-0.867,4.28-2.771,4.28c-1.885,0-2.883-1.414-2.883-4.242v-0.641c0-2.791,0.961-4.242,2.846-4.242   C-224.36-59.104-223.418-57.576-223.418-54.861z"/><path d="M-215.443-61.441c-1.79,0-3.241,1.432-3.241,3.166c0,1.697,1.452,3.13,3.241,3.13c1.792,0,3.225-1.433,3.225-3.13   C-212.219-60.009-213.652-61.441-215.443-61.441z M-215.443-56.389c-1.017,0-1.753-0.829-1.753-1.886   c0-1.094,0.736-1.923,1.753-1.923c1,0,1.697,0.829,1.697,1.923C-213.747-57.218-214.444-56.389-215.443-56.389z"/></g><g><path d="M-212.726-64.001c-5.499-5.503-13.119-8.913-21.514-8.912c-16.805,0.002-30.424,13.621-30.426,30.426   c0,1.201,0.974,2.175,2.175,2.175c1.201,0,2.175-0.974,2.175-2.175c0.026-14.4,11.675-26.049,26.075-26.075   c7.207,0.001,13.712,2.915,18.437,7.637c0.849,0.849,2.227,0.849,3.076,0C-211.877-61.774-211.877-63.151-212.726-64.001z"/><path d="M-234.24-63.899c-11.827,0.001-21.411,9.585-21.412,21.412c0,1.201,0.974,2.175,2.175,2.175   c1.201,0,2.175-0.974,2.175-2.175h0c0.017-9.422,7.64-17.045,17.062-17.062c4.718,0.001,8.97,1.907,12.064,4.998   c0.849,0.849,2.227,0.849,3.076,0c0.85-0.849,0.85-2.227,0-3.076C-222.968-61.499-228.334-63.9-234.24-63.899z"/><path d="M-225.448-51.28c-2.243-2.246-5.365-3.643-8.792-3.642c-6.868,0.002-12.433,5.566-12.435,12.435   c0,1.201,0.974,2.175,2.175,2.175c1.201,0,2.175-0.974,2.175-2.175c0.008-4.464,3.62-8.076,8.084-8.084   c2.239,0.001,4.246,0.902,5.716,2.368c0.849,0.849,2.227,0.849,3.076,0S-224.598-50.43-225.448-51.28L-225.448-51.28z"/></g><g><path d="M-230.129-70.418c0.849,0.849,2.227,0.849,3.076,0c0.849-0.849,0.849-2.227,0-3.076l-9.868-9.868l-1.538-0.637   l-1.538,0.637l-9.868,9.868c-0.849,0.849-0.849,2.227,0,3.076c0.85,0.849,2.227,0.849,3.076,0l6.155-6.155V-31.4   c0,1.201,0.974,2.175,2.175,2.175c1.201,0,2.175-0.974,2.175-2.175v-45.172L-230.129-70.418z"/><path d="M-209.065-55.025l-9.868-9.868l-1.538-0.637l-1.538,0.637l-9.868,9.868c-0.849,0.85-0.849,2.227,0,3.076   c0.849,0.849,2.227,0.849,3.076,0l6.155-6.155V-31.4c0,1.201,0.974,2.175,2.175,2.175s2.175-0.974,2.175-2.175v-26.704l6.155,6.155   c0.849,0.849,2.227,0.849,3.076,0C-208.215-52.799-208.215-54.176-209.065-55.025z"/><path d="M-254.746-52.467l-1.538-0.637l-1.538,0.637l-9.868,9.868c-0.849,0.849-0.849,2.227,0,3.076   c0.849,0.85,2.227,0.849,3.076,0l6.155-6.155V-31.4c0,1.201,0.974,2.175,2.175,2.175c1.201,0,2.175-0.974,2.175-2.175v-14.277   l6.155,6.154c0.849,0.849,2.227,0.849,3.076,0c0.849-0.849,0.85-2.227,0-3.076L-254.746-52.467z"/></g><g><path d="M23.898,43.659c-1.201,0-2.175,0.974-2.175,2.175v8.332c0,1.201,0.974,2.175,2.175,2.175s2.175-0.974,2.175-2.175v-8.332   C26.073,44.633,25.099,43.659,23.898,43.659z"/><path d="M32.599,38.014c-1.201,0-2.175,0.974-2.175,2.175V59.81c0,1.201,0.974,2.175,2.175,2.175c1.201,0,2.175-0.974,2.175-2.175   V40.189C34.774,38.988,33.8,38.014,32.599,38.014z"/><path d="M41.299,29.58c-1.201,0-2.175,0.974-2.175,2.175v36.489c0,1.201,0.974,2.175,2.175,2.175c1.201,0,2.175-0.974,2.175-2.175   V31.756C43.474,30.554,42.501,29.58,41.299,29.58z"/><path d="M50,33.206c-1.201,0-2.175,0.974-2.175,2.175v29.238c0,1.201,0.974,2.175,2.175,2.175c1.201,0,2.175-0.974,2.175-2.175   V35.381C52.175,34.18,51.202,33.206,50,33.206z"/><path d="M58.701,23.055c-1.201,0-2.175,0.974-2.175,2.175v49.54c0,1.201,0.974,2.175,2.175,2.175c1.201,0,2.175-0.974,2.175-2.175   V25.23C60.876,24.028,59.902,23.055,58.701,23.055z"/><path d="M67.402,33.931c-1.201,0-2.175,0.974-2.175,2.175v27.788c0,1.201,0.974,2.175,2.175,2.175s2.175-0.974,2.175-2.175V36.106   C69.577,34.904,68.603,33.931,67.402,33.931z"/><path d="M76.103,44.927c-1.201,0-2.175,0.974-2.175,2.175v5.794c0,1.201,0.974,2.175,2.175,2.175c1.201,0,2.175-0.974,2.175-2.175   v-5.794C78.278,45.902,77.304,44.927,76.103,44.927z"/></g><path d="M-210.533-57.226c-0.06-0.208,0.004-0.43-0.122-0.62l-9.879-14.839c-1.479-2.221-3.971-3.556-6.639-3.556h-22.407  c-2.669,0-5.16,1.334-6.639,3.556l-9.88,14.839c-0.126,0.19-0.062,0.413-0.122,0.621l-0.242,0.584v11.682  c0.001,4.406,3.57,7.974,7.976,7.976h40.221c4.406-0.002,7.974-3.57,7.976-7.976v-11.682L-210.533-57.226z M-252.599-70.274  c0.672-1.01,1.805-1.616,3.018-1.616h22.407c1.213,0,2.346,0.607,3.018,1.616l7.629,11.458h-9.093c-3.021,0-5.93,1.677-7.216,4.59  c-0.935,2.135-3.062,3.63-5.541,3.628c-2.479,0.003-4.606-1.492-5.541-3.628c-1.286-2.913-4.194-4.589-7.216-4.59h-9.094  L-252.599-70.274z M-214.641-44.959c-0.004,2.001-1.624,3.622-3.625,3.625h-40.221c-2.002-0.004-3.622-1.624-3.626-3.625v-9.507  h10.98c1.434,0,2.732,0.81,3.229,1.981c1.6,3.671,5.266,6.235,9.528,6.237c4.261-0.002,7.928-2.566,9.528-6.237  c0.497-1.17,1.795-1.981,3.229-1.981h10.979V-44.959z"/><g><path d="M-222.745-67.007l1.014-1.321l2.652-9.898c0.311-1.161-0.378-2.353-1.538-2.664c-1.161-0.311-2.353,0.378-2.664,1.538v0   l-1.287,4.804l-2.74-4.747c-2.07-3.597-5.774-5.441-9.401-5.428c-3.628-0.013-7.331,1.831-9.401,5.428l-5.379,9.316   c-0.6,1.04-0.244,2.371,0.796,2.972c1.041,0.6,2.371,0.244,2.972-0.796l5.379-9.317c1.271-2.19,3.414-3.24,5.633-3.253   c2.219,0.013,4.362,1.063,5.633,3.253l2.757,4.774l-4.889-1.31c-1.161-0.311-2.353,0.378-2.664,1.538   c-0.311,1.161,0.378,2.353,1.538,2.664l9.939,2.663L-222.745-67.007z"/><path d="M-241.703-40.082h-10.758c-3.804-0.007-6.506-3.124-6.518-6.518c0.002-1.076,0.268-2.169,0.884-3.239l2.757-4.775   l1.31,4.888c0.311,1.161,1.504,1.849,2.664,1.538c1.161-0.311,1.849-1.504,1.538-2.664l-2.663-9.939   c-0.311-1.16-1.504-1.849-2.664-1.538l-9.898,2.652c-1.161,0.311-1.849,1.504-1.538,2.664c0.311,1.161,1.504,1.849,2.664,1.538   l4.804-1.287l-2.74,4.747c-0.999,1.727-1.469,3.6-1.468,5.414c0.011,5.674,4.539,10.854,10.868,10.868h10.758   c1.201,0,2.175-0.974,2.175-2.175C-239.527-39.108-240.501-40.082-241.703-40.082z"/><path d="M-211.558-52.014l-5.379-9.316c-0.6-1.041-1.931-1.397-2.971-0.796c-1.04,0.6-1.397,1.931-0.796,2.971l5.379,9.316   c0.616,1.07,0.883,2.163,0.884,3.239c-0.012,3.394-2.713,6.512-6.518,6.518h-5.513l3.579-3.579c0.849-0.85,0.849-2.227,0-3.076   c-0.849-0.849-2.227-0.849-3.076,0l-7.276,7.276c-0.85,0.849-0.85,2.227,0,3.076l7.246,7.246c0.849,0.849,2.227,0.849,3.076,0   c0.849-0.849,0.849-2.227,0-3.076l-3.517-3.517l5.481,0c6.329-0.014,10.857-5.195,10.868-10.868   C-210.089-48.414-210.559-50.287-211.558-52.014z"/></g><g><path d="M-215.53-69.66h-39.451l-1.044-2.671c-1.384-3.54-4.795-5.87-8.596-5.87c-1.202,0-2.175,0.974-2.175,2.175   s0.974,2.175,2.175,2.175c2.009,0,3.813,1.232,4.544,3.103l7.85,20.087c1.196,3.059,4.144,5.072,7.429,5.073h22.568   c3.285,0,6.233-2.013,7.429-5.073l4.457-11.405c0.26-0.664,0.386-1.356,0.385-2.03C-209.965-67.054-212.338-69.647-215.53-69.66z    M-214.396-63.647l-4.457,11.403c-0.543,1.391-1.884,2.306-3.377,2.306h-22.568c-1.493,0-2.834-0.915-3.377-2.306l-5.106-13.067   h37.751c0.7,0.001,1.216,0.585,1.22,1.214L-214.396-63.647z"/><circle cx="-221.513" cy="-39.459" r="4.255"/><circle cx="-245.481" cy="-39.279" r="4.255"/></g><path d="M-210.463-66.804c-0.077-0.092-0.063-0.226-0.157-0.307l-26.24-22.314c-0.81-0.689-2.004-0.69-2.815-0.002l-26.336,22.314  c-0.052,0.044-0.04,0.121-0.087,0.17c-2.826,2.254-4.686,5.689-4.686,9.587v21.749c0.001,6.808,5.518,12.325,12.326,12.326h40.161  c6.808-0.001,12.325-5.518,12.326-12.326v-21.749C-205.97-61.168-207.744-64.548-210.463-66.804z M-230.582-46.791l18.65-15.307  c0.993,1.329,1.611,2.95,1.611,4.741v21.749c-0.003,1.766-0.691,3.312-1.662,4.633L-230.582-46.791z M-238.271-84.915l23.221,19.747  l-18.9,15.513l-2.91-2.475c-0.81-0.689-2.004-0.69-2.815-0.003l-2.938,2.49l-19.005-15.491L-238.271-84.915z M-264.725-30.907  c-1.002-1.332-1.705-2.906-1.708-4.701v-21.749c0-1.799,0.632-3.423,1.635-4.756l18.809,15.331L-264.725-30.907z M-258.458-27.632  c-0.974-0.002-1.883-0.237-2.745-0.557l22.932-19.429l22.822,19.408c-0.889,0.343-1.837,0.576-2.848,0.578H-258.458z"/><path d="M-212.681-84.536l-1.867-0.396l-15.711,3.928l-15.711-3.928l-0.528,0.112l-0.528-0.112l-16.239,4.06  c-0.968,0.242-1.647,1.112-1.647,2.11v48.359c0,0.668,0.31,1.303,0.837,1.715l1.866,0.395l15.711-3.928l15.711,3.928l0.528-0.112  l0.527,0.112l16.239-4.059c0.969-0.242,1.648-1.112,1.648-2.11v-48.359C-211.844-83.489-212.154-84.124-212.681-84.536z   M-260.56-77.063l11.888-2.972v43.875l-11.888,2.972V-77.063z M-244.322-80.035l11.888,2.972v43.875l-11.888-2.972V-80.035z   M-216.195-36.161l-11.888,2.973v-43.875l11.888-2.972V-36.161z"/><path d="M-216.239-31.487l-20.111-51.823c-0.325-0.839-1.128-1.388-2.028-1.388c-0.9,0-1.702,0.549-2.028,1.388l-20.11,51.823  c-0.333,0.857-0.087,1.84,0.612,2.438c0.698,0.599,1.706,0.692,2.503,0.233l19.024-10.974l19.024,10.974  c0.797,0.46,1.805,0.366,2.503-0.233C-216.153-29.648-215.906-30.63-216.239-31.487z M-237.29-44.185  c-0.673-0.388-1.501-0.388-2.174,0l-14.762,8.515l15.849-40.84l15.849,40.84L-237.29-44.185z"/><path d="M-219.608-70.159c-0.024-0.026-0.012-0.065-0.037-0.09l-11.263-11.263c-0.032-0.032-0.083-0.018-0.116-0.048  c-0.955-1.132-2.332-1.892-3.93-1.893h-17.133c-3.813,0.008-6.898,3.093-6.906,6.906v39.87c0.008,3.813,3.093,6.898,6.906,6.906  h27.419c3.813-0.008,6.898-3.094,6.906-6.906V-66.26C-217.762-67.838-218.5-69.204-219.608-70.159z M-229.746-74.198l2.73,2.729  h-2.73V-74.198z M-222.112-36.677c-0.002,1.391-1.165,2.553-2.556,2.556h-27.419c-1.391-0.003-2.554-1.165-2.556-2.556v-39.87  c0.002-1.391,1.165-2.553,2.556-2.556h17.133l0.858,0.858v8.952l0.637,1.538l1.538,0.637h8.951l0.858,0.858V-36.677z"/><path d="M-213.568-82.444h-49.619c-4.401,0.008-7.967,3.574-7.975,7.976v28.385c0.008,4.401,3.574,7.967,7.975,7.976h17.208  c-0.54,0.568-1.122,1.156-1.711,1.677l-1.401,1.086l-0.407,0.214h-5.393c-1.201,0-2.175,0.974-2.175,2.175  c0,1.201,0.974,2.175,2.175,2.175h33.028c1.201,0,2.175-0.974,2.175-2.175c0-1.201-0.974-2.175-2.175-2.175h-5.329l-1.161-0.762  c-0.759-0.605-1.608-1.437-2.362-2.215h17.147c4.401-0.008,7.967-3.575,7.976-7.976v-28.385  C-205.601-78.87-209.167-82.436-213.568-82.444z M-235.779-37.175c0.297,0.343,0.989,1.119,1.884,2.045h-8.918  c0.945-0.997,1.588-1.743,1.844-2.048c0.736-0.592,1.646-0.929,2.593-0.929C-237.428-38.107-236.516-37.77-235.779-37.175z   M-209.943-46.083c-0.004,1.979-1.646,3.622-3.625,3.625h-49.619c-1.979-0.004-3.621-1.646-3.625-3.625v-28.385  c0.004-1.98,1.646-3.622,3.625-3.625h49.619c1.979,0.004,3.622,1.646,3.625,3.625V-46.083z"/><g><path d="M-204.637-36.242h-67.48c-1.201,0-2.175,0.974-2.175,2.175c0,1.201,0.974,2.175,2.175,2.175h67.48   c1.201,0,2.175-0.974,2.175-2.175C-202.462-35.269-203.436-36.242-204.637-36.242z"/><path d="M-261.205-38.77h45.655c4.406-0.001,7.974-3.57,7.975-7.976v-26.61c-0.008-4.401-3.574-7.967-7.975-7.976h-45.655   c-4.402,0.008-7.968,3.575-7.976,7.976v26.61C-269.179-42.34-265.611-38.772-261.205-38.77z M-264.83-73.357   c0.004-1.979,1.646-3.622,3.625-3.625h45.655c1.979,0.004,3.621,1.646,3.625,3.625v26.61c-0.004,2.002-1.624,3.622-3.625,3.625   h-45.655c-2.002-0.004-3.622-1.624-3.625-3.625V-73.357z"/><circle cx="-238.377" cy="-73.16" r="2.168"/></g><g><path d="M-226.853-49.671l1.538-0.637l0.637-1.538v-16.799c-0.008-4.401-3.575-7.967-7.976-7.976h-24.515   c-4.401,0.008-7.967,3.575-7.976,7.976v10.998c0.008,4.401,3.575,7.967,7.976,7.976H-226.853z M-260.794-57.647v-10.998   c0.004-1.98,1.646-3.622,3.625-3.625h24.515c1.98,0.004,3.622,1.646,3.625,3.625v14.623h-28.14   C-259.148-54.025-260.791-55.668-260.794-57.647z"/><path d="M-218.781-43.774l0.637-1.538v-22.599c0-1.201-0.974-2.175-2.175-2.175c-1.201,0-2.175,0.974-2.175,2.175v20.424h-33.941   c-1.202,0-2.175,0.974-2.175,2.175c0,1.201,0.974,2.175,2.175,2.175h36.116L-218.781-43.774z"/><path d="M-213.785-63.553c-1.201,0-2.175,0.974-2.175,2.175v20.424h-33.941c-1.202,0-2.175,0.974-2.175,2.175   c0,1.201,0.974,2.175,2.175,2.175h36.116l1.538-0.637l0.637-1.538v-22.599C-211.61-62.579-212.584-63.553-213.785-63.553z"/></g><path d="M-207.501-58.866h-5.612v-6.356c-0.008-4.401-3.574-7.967-7.975-7.976h-14.928v-6.222c0-1.201-0.974-2.175-2.175-2.175  c-1.201,0-2.175,0.974-2.175,2.175v6.222h-14.927c-4.402,0.008-7.968,3.575-7.976,7.976v6.356h-5.984  c-1.201,0-2.175,0.974-2.175,2.175c0,1.201,0.974,2.175,2.175,2.175h5.984v6.356c0.008,4.402,3.574,7.968,7.976,7.976h14.927v6.38  c0,1.201,0.974,2.175,2.175,2.175c1.201,0,2.175-0.974,2.175-2.175v-6.38h14.928c4.406-0.001,7.974-3.57,7.975-7.976v-6.356h5.612  c1.201,0,2.175-0.974,2.175-2.175C-205.326-57.892-206.3-58.866-207.501-58.866z M-217.464-48.16  c-0.004,2.002-1.624,3.622-3.625,3.625h-14.928v-3.382c0-1.201-0.974-2.175-2.175-2.175c-1.201,0-2.175,0.974-2.175,2.175v3.382  h-14.927c-1.98-0.004-3.622-1.646-3.626-3.625v-6.356h3.778c1.201,0,2.175-0.974,2.175-2.175c0-1.201-0.974-2.175-2.175-2.175  h-3.778v-6.356c0.004-1.979,1.646-3.622,3.626-3.625h14.927v3.54c0,1.201,0.974,2.175,2.175,2.175c1.201,0,2.175-0.974,2.175-2.175  v-3.54h14.928c1.979,0.004,3.621,1.646,3.625,3.625v6.356h-4.15c-1.201,0-2.175,0.974-2.175,2.175c0,1.201,0.974,2.175,2.175,2.175  h4.15V-48.16z"/><g><path d="M-238.377-69.05c-6.871,0.001-12.437,5.568-12.439,12.439c0.001,6.87,5.568,12.437,12.439,12.438   c6.87-0.001,12.437-5.568,12.438-12.438C-225.94-63.482-231.507-69.049-238.377-69.05z M-238.377-48.524   c-4.466-0.008-8.08-3.622-8.088-8.088c0.008-4.466,3.622-8.08,8.088-8.088c4.466,0.008,8.08,3.622,8.088,8.088   C-230.297-52.146-233.911-48.532-238.377-48.524z"/><path d="M-238.377-73.451c1.201,0,2.175-0.974,2.175-2.175v-6.897c0-1.201-0.974-2.175-2.175-2.175   c-1.201,0-2.175,0.974-2.175,2.175v6.897C-240.553-74.425-239.578-73.451-238.377-73.451z"/><path d="M-253.36-68.519c0.849,0.849,2.227,0.849,3.076,0s0.849-2.227,0-3.076l-4.877-4.877c-0.849-0.849-2.227-0.849-3.076,0   c-0.85,0.849-0.85,2.227,0,3.076L-253.36-68.519z"/><path d="M-255.216-56.612c0-1.201-0.974-2.175-2.175-2.175h-6.897c-1.201,0-2.175,0.974-2.175,2.175   c0,1.201,0.974,2.175,2.175,2.175h6.897C-256.19-54.437-255.216-55.41-255.216-56.612z"/><path d="M-253.36-44.705l-4.877,4.877c-0.85,0.849-0.85,2.227,0,3.076c0.849,0.849,2.227,0.849,3.076,0l4.877-4.877   c0.849-0.849,0.849-2.227,0-3.076S-252.511-45.555-253.36-44.705z"/><path d="M-238.377-39.773c-1.201,0-2.175,0.974-2.175,2.175v6.897c0,1.201,0.974,2.175,2.175,2.175   c1.201,0,2.175-0.974,2.175-2.175v-6.897C-236.202-38.799-237.176-39.773-238.377-39.773z"/><path d="M-223.394-44.705c-0.849-0.849-2.227-0.849-3.076,0s-0.849,2.227,0,3.076l4.877,4.877c0.849,0.849,2.227,0.849,3.076,0   c0.849-0.85,0.849-2.227,0-3.076L-223.394-44.705z"/><path d="M-212.466-58.787h-6.897c-1.201,0-2.175,0.974-2.175,2.175c0,1.201,0.974,2.175,2.175,2.175h6.897   c1.201,0,2.175-0.974,2.175-2.175C-210.291-57.813-211.264-58.787-212.466-58.787z"/><path d="M-223.394-68.519l4.877-4.877c0.849-0.849,0.849-2.227,0-3.076c-0.85-0.849-2.227-0.849-3.076,0l-4.877,4.877   c-0.849,0.85-0.849,2.227,0,3.076S-224.244-67.669-223.394-68.519z"/></g><path d="M-227.524-83.718l-1.538-0.637l-1.538,0.637l-0.637,1.538c0,0,0,10.533,0,21.665c0,4.154,0,8.011,0,11.219  c-1.966-1.573-4.426-2.553-7.14-2.553c-6.347,0.001-11.488,5.144-11.49,11.49c0.001,6.347,5.143,11.488,11.49,11.49  c6.347-0.002,11.488-5.144,11.49-11.49c0,0,0-9.024,0-20.155s0-21.643,0-21.665L-227.524-83.718z M-238.377-33.22  c-3.942-0.007-7.132-3.198-7.139-7.14c0.007-3.942,3.197-7.132,7.139-7.139c3.942,0.007,7.133,3.197,7.14,7.139  C-231.245-36.417-234.435-33.227-238.377-33.22z"/><path d="M-210.384-86.03c-0.008-0.085,0.062-0.154,0.043-0.239c-0.047-0.217-0.248-0.321-0.351-0.505l-0.236-0.568l-0.225-0.093  c-0.224-0.181-0.468-0.227-0.746-0.309l-0.568-0.235l-0.225,0.093c-0.085,0.008-0.154-0.062-0.239-0.043l-33.193,7.251  c-0.217,0.047-0.321,0.248-0.505,0.351l-0.568,0.236l-0.093,0.225c-0.182,0.224-0.226,0.467-0.308,0.745l-0.236,0.568  c0,0.022,0,10.533,0,21.665c0,4.153,0,8.011,0,11.218c-1.966-1.573-4.425-2.552-7.139-2.553c-6.347,0.001-11.488,5.144-11.49,11.49  c0.001,6.346,5.143,11.488,11.49,11.49c6.347-0.001,11.488-5.144,11.49-11.49c0,0,0-9.024,0-20.156c0-3.594,0-7.081,0-10.213  l28.843-6.301c0,2.886,0,6.03,0,9.263c0,4.154,0,8.011,0,11.219c-1.966-1.573-4.426-2.553-7.14-2.553  c-6.346,0.001-11.488,5.144-11.49,11.49c0.001,6.346,5.144,11.488,11.49,11.49c6.347-0.001,11.488-5.144,11.49-11.49  c0,0,0-9.024,0-20.156s0-21.643,0-21.665L-210.384-86.03z M-254.974-29.594c-3.942-0.007-7.133-3.197-7.14-7.139  c0.007-3.942,3.198-7.133,7.14-7.14c3.942,0.007,7.132,3.198,7.139,7.14C-247.842-32.792-251.032-29.602-254.974-29.594z   M-243.484-71.556c0-2.21,0-4.023,0-5.247l28.843-6.301c0,1.35,0,3.129,0,5.247L-243.484-71.556z M-221.781-36.845  c-3.942-0.007-7.132-3.198-7.139-7.139c0.007-3.942,3.197-7.133,7.139-7.14c3.942,0.007,7.133,3.198,7.14,7.14  C-214.648-40.042-217.839-36.852-221.781-36.845z"/><path d="M-209.445-79.581c-0.008-1.135-0.893-2.078-2.026-2.155l-0.26-0.009c-0.99,0.019-1.817,0.273-2.88,0.632  c-3.605,1.277-9.366,4.315-15.113,8.04c-5.734,3.744-11.331,8.053-14.454,12.197c-2.741,3.66-4.287,7.843-4.283,12.189  c-0.002,3.144,0.84,6.342,2.476,9.432c-1.439,0.328-2.977,0.549-4.518,0.542c-2.334,0.003-4.622-0.431-6.467-1.353  c-1.851-0.933-3.27-2.274-4.169-4.342c-0.705-1.644-1.01-3.334-1.01-5.084c-0.059-5.836,3.629-12.274,6.832-16.849l1.334,5.729  c0.272,1.17,1.442,1.898,2.612,1.625c1.17-0.272,1.898-1.442,1.625-2.612l-2.519-10.817c-0.272-1.17-1.442-1.898-2.612-1.625  l-10.817,2.519c-1.17,0.272-1.898,1.442-1.625,2.612c0.272,1.17,1.442,1.898,2.612,1.625l5.684-1.323  c-3.371,4.817-7.418,11.696-7.476,19.116c-0.001,2.26,0.404,4.569,1.364,6.801c1.307,3.066,3.611,5.231,6.23,6.52  c2.624,1.301,5.55,1.805,8.404,1.808c4.23-0.016,8.284-1.098,11.253-2.844c0.055-0.028,0.112-0.055,0.167-0.085  c0.043-0.026,0.097-0.045,0.14-0.071c0.02-0.012,0.018-0.039,0.037-0.052c0.723-0.412,1.414-0.9,2.102-1.462  c4.53-3.879,9.369-11.354,11.94-15.343c0.647-1.012,0.35-2.357-0.662-3.004c-1.012-0.647-2.357-0.35-3.004,0.662  c-1.657,2.596-4.365,6.728-7.122,10.135c-1.373,1.7-2.766,3.217-3.965,4.231c-1.154,1.024-2.15,1.387-2.277,1.349l-0.17-0.239  c-1.41-2.598-2.045-5.137-2.048-7.602c0.003-3.311,1.151-6.544,3.418-9.584c2.807-3.805,9.431-8.816,15.701-12.645  c3.138-1.929,6.204-3.597,8.671-4.761c0.995-0.47,1.798-0.789,2.548-1.075c0.021,2.222,0.048,4.459,0.048,6.588  c0.039,10.843-0.734,20.196-4.83,25.68c-3.221,4.49-9.796,8.61-15.08,8.657c-1.201,0.027-2.153,1.022-2.126,2.224  c0.027,1.201,1.022,2.152,2.223,2.126v0c7.241-0.235,14.413-4.951,18.492-10.436c5.178-7.184,5.631-17.281,5.67-28.25  C-209.376-73.246-209.424-76.4-209.445-79.581z"/><g><path d="M-214.543-87.705h-47.669c-6.794,0.008-12.318,5.532-12.326,12.326v37.533c0.008,6.794,5.532,12.318,12.326,12.326h47.669   c6.794-0.008,12.318-5.532,12.326-12.326v-37.533C-202.225-82.172-207.749-87.696-214.543-87.705z M-206.567-37.846   c-0.008,4.372-3.604,7.968-7.976,7.976h-47.669c-4.372-0.008-7.968-3.604-7.975-7.976v-37.533c0.008-4.372,3.604-7.968,7.975-7.976   h47.669c4.372,0.008,7.968,3.604,7.976,7.976V-37.846z"/><path d="M-215.839-80.833h-45.077c-3.739,0.008-6.764,3.033-6.772,6.772v34.897c0.008,3.739,3.033,6.764,6.772,6.772h45.077   c3.739-0.008,6.764-3.033,6.772-6.772V-74.06C-209.075-77.799-212.099-80.824-215.839-80.833z M-213.417-39.164   c-0.002,1.317-1.104,2.419-2.422,2.422h-45.077c-1.318-0.003-2.42-1.105-2.422-2.422V-74.06c0.002-1.317,1.104-2.419,2.422-2.422   h18.344l9.718,9.718c0.849,0.849,2.227,0.849,3.076,0c0.849-0.849,0.849-2.227,0-3.076l-6.641-6.641h3.552l9.718,9.718   c0.849,0.849,2.227,0.849,3.076,0c0.849-0.849,0.849-2.227,0-3.076l-6.641-6.641h10.876c1.318,0.003,2.42,1.105,2.422,2.422   V-39.164z"/></g><g><path d="M-238.378-45.081c6.794-0.008,12.318-5.532,12.326-12.326v-17.124c-0.008-6.794-5.532-12.318-12.326-12.326   c-6.794,0.008-12.318,5.532-12.326,12.326v17.124C-250.695-50.613-245.171-45.089-238.378-45.081z M-246.353-74.531   c0.008-4.372,3.604-7.968,7.976-7.976c4.372,0.008,7.968,3.604,7.976,7.976v17.124c-0.008,4.372-3.604,7.968-7.976,7.976   c-4.372-0.008-7.968-3.604-7.976-7.976V-74.531z"/><path d="M-218.075-57.045c0-1.201-0.974-2.175-2.175-2.175c-1.201,0-2.175,0.974-2.175,2.175   c-0.016,8.809-7.143,15.936-15.952,15.952c-8.809-0.016-15.935-7.143-15.951-15.952c0-1.201-0.974-2.175-2.175-2.175   c-1.201,0-2.175,0.974-2.175,2.175c0.001,10.468,7.951,18.982,18.127,20.083v8.42c0,1.201,0.974,2.175,2.175,2.175   c1.201,0,2.175-0.974,2.175-2.175v-8.42C-226.026-38.062-218.077-46.577-218.075-57.045z"/></g></svg>