<?xml version="1.0" encoding="utf-8"?>
<!-- Generator: Adobe Illustrator 24.0.3, SVG Export Plug-In . SVG Version: 6.00 Build 0)  -->
<svg version="1.1" id="Layer_1" xmlns="http://www.w3.org/2000/svg" xmlns:xlink="http://www.w3.org/1999/xlink" x="0px" y="0px"
	 viewBox="0 0 277 276" style="enable-background:new 0 0 277 276;" xml:space="preserve">
<style type="text/css">
	.st0{fill:#FFFFFF;stroke:#FF6464;stroke-width:7;}
</style>
<g>
	<g transform="translate(0.000000,511.000000) scale(0.100000,-0.100000)">
		<path class="st0" d="M1269.3,4914.2c-144.5-14.4-296-58.5-420.5-121.7C264.8,4495.6,28.2,3791.7,316.3,3207.1
			c65-132.4,134.3-226.7,241.1-330.3c119.4-115.7,243.9-196.1,397.7-256c57.2-22.3,53.4-22.8,68.8,5.6c19,35.3,57.2,86.4,91.5,122.2
			c57.2,59.5,125,100.8,193.3,117.5c33,7.9,111,7.9,144,0c31.6-7.9,94.3-36.2,123.1-56.2c54.8-37.6,121.3-112.9,158-178.9
			c9.3-16.7,19.1-30.2,21.8-30.2c10.7,0,115.2,44.1,165.4,69.2c112.4,57.6,195.1,117.1,287.6,206.8
			c107.3,103.6,176.6,198.4,241.1,330.3c58.1,118.9,89.2,217.9,109.7,348.5c12.1,78.1,14.4,251.4,4.7,320.6
			c-39.5,276-152.4,505.5-340.6,694.2c-184,183.5-409.3,296.4-673.2,337.3C1492.3,4916.5,1328.7,4920.7,1269.3,4914.2z
			 M1453.7,4648.9c36.7-17.2,66-45.5,84.1-82.2c13.9-28.3,14.9-33.9,14.9-77.1c0-41.8-1.4-49.3-13-72
			c-17.2-33.4-48.8-65.5-81.8-81.8c-23.7-12.1-30.2-13.5-74.8-13.5c-44.1,0-51.1,1.4-74.4,13c-33.9,17.7-62.7,46-80.4,79.9
			c-13.9,26-14.9,30.7-14.9,76.7c0,44.1,1.4,51.1,12.5,72.9c23.7,44.6,50.2,69.2,96.2,88.3
			C1358.9,4668.4,1415.6,4666.5,1453.7,4648.9z M936.1,4427.3c34.8-19.1,62.7-47.8,79-83.2c10.7-22.8,12.5-32.5,12.5-70.6
			c0-40.4-1.4-46.9-14.9-74.8c-18.1-36.7-47.4-65-84.1-82.2c-22.8-10.7-32.5-12.5-70.6-12.5c-38.1,0-47.8,1.9-70.6,12.5
			c-35.3,16.3-68.8,48.3-85.5,81.3c-12.5,24.6-13.5,31.1-13.5,75.7c0,58.1,7.9,79.4,42.3,116.2c40.9,43.7,72,56.2,134.3,54.4
			C902.2,4442.6,910.1,4440.7,936.1,4427.3z M1983,4430.1c32.5-15.8,66-49.3,82.2-82.2c11.2-22.8,12.5-30.7,12.5-74.4
			c0-40.4-1.9-52.5-10.2-71.1c-15.3-32.5-52.5-69.2-86.4-85c-25.1-12.1-33.9-13.5-72.9-13.5c-38.1,0-47.8,1.9-70.6,12.5
			c-36.7,17.2-66,45.5-84.1,82.2c-13.5,27.9-14.9,34.4-14.9,74.8c0,38.1,1.9,47.8,12.1,70.2c21.4,45.1,56.7,78.1,102.2,94.3
			C1885.9,4450,1950.4,4445.9,1983,4430.1z M710.3,3905.5c36.7-17.2,66-45.5,84.1-82.2c13.9-28.3,14.9-33.9,14.9-77.1
			c0-41.8-1.4-49.3-13-72c-17.2-33.5-48.8-65.5-81.8-81.8c-23.7-12.1-30.2-13.5-74.8-13.5s-51.1,1.4-74.8,13.5
			c-33,16.3-64.6,48.3-81.8,81.8c-11.6,23.2-13,30.2-13,74.4c0,44.1,1.4,51.1,12.5,72.9c23.7,44.6,50.2,69.2,96.2,88.3
			C615.5,3925,672.2,3923.1,710.3,3905.5z M2197.1,3905.5c36.7-17.2,66-45.5,84.1-82.2c13.9-28.3,14.9-33.9,14.9-77.1
			c0-41.8-1.4-49.3-13-72c-17.2-33.5-48.8-65.5-81.8-81.8c-23.7-12.1-30.2-13.5-74.8-13.5c-44.6,0-51.1,1.4-74.8,13.5
			c-33,16.3-64.6,48.3-81.8,81.8c-11.6,23.2-13,30.2-13,74.4c0,44.1,1.4,51.1,12.5,72.9c23.7,44.6,50.2,69.2,96.2,88.3
			C2102.4,3925,2159,3923.1,2197.1,3905.5z"/>
	</g>
</g>
</svg>
